<?xml version="1.0" encoding="UTF-8" standalone="no"?><!-- Generator: Gravit.io --><svg xmlns="http://www.w3.org/2000/svg" xmlns:xlink="http://www.w3.org/1999/xlink" style="isolation:isolate" viewBox="0 0 255.118 141.732" width="255.118pt" height="141.732pt"><defs><clipPath id="_clipPath_NVU0l99C1uow8xnU1iRF6ugixuLUr5xi"><rect width="255.118" height="141.732"/></clipPath></defs><g clip-path="url(#_clipPath_NVU0l99C1uow8xnU1iRF6ugixuLUr5xi)"><rect x="0" y="0" width="255.118" height="141.732" transform="matrix(1,0,0,1,0,0)" fill="rgb(235,235,235)"/><rect x="0" y="0" width="255.118" height="141.732" transform="matrix(1,0,0,1,0,0)" fill="rgb(23,23,23)"/><g><g/></g><path d="M 20.313 20 L 23.597 20 C 23.77 20 23.91 20.14 23.91 20.313 L 23.91 23.597 C 23.91 23.77 23.77 23.91 23.597 23.91 L 20.313 23.91 C 20.14 23.91 20 23.77 20 23.597 L 20 20.313 C 20 20.14 20.14 20 20.313 20 Z" style="stroke:none;fill:#FFFFFF;stroke-miterlimit:10;"/><path d="M 24.574 20 L 27.866 20 C 28.039 20 28.18 20.14 28.18 20.313 L 28.18 23.597 C 28.18 23.77 28.039 23.91 27.866 23.91 L 24.574 23.91 C 24.401 23.91 24.26 23.77 24.26 23.597 L 24.26 20.313 C 24.26 20.14 24.401 20 24.574 20 Z" style="stroke:none;fill:#FFFFFF;stroke-miterlimit:10;"/><path d="M 20.313 24.26 L 23.597 24.26 C 23.77 24.26 23.91 24.401 23.91 24.574 L 23.91 27.866 C 23.91 28.039 23.77 28.18 23.597 28.18 L 20.313 28.18 C 20.14 28.18 20 28.039 20 27.866 L 20 24.574 C 20 24.401 20.14 24.26 20.313 24.26 Z" style="stroke:none;fill:#FFFFFF;stroke-miterlimit:10;"/><path d="M 24.574 24.26 L 27.866 24.26 C 28.039 24.26 28.18 24.401 28.18 24.574 L 28.18 27.866 C 28.18 28.039 28.039 28.18 27.866 28.18 L 24.574 28.18 C 24.401 28.18 24.26 28.039 24.26 27.866 L 24.26 24.574 C 24.26 24.401 24.401 24.26 24.574 24.26 Z" style="stroke:none;fill:#FFFFFF;stroke-miterlimit:10;"/><path d="M 28.843 24.26 L 32.127 24.26 C 32.3 24.26 32.44 24.401 32.44 24.574 L 32.44 27.866 C 32.44 28.039 32.3 28.18 32.127 28.18 L 28.843 28.18 C 28.67 28.18 28.53 28.039 28.53 27.866 L 28.53 24.574 C 28.53 24.401 28.67 24.26 28.843 24.26 Z" style="stroke:none;fill:#4A86E8;stroke-miterlimit:10;"/><path d="M 20.313 28.53 L 23.597 28.53 C 23.77 28.53 23.91 28.67 23.91 28.843 L 23.91 32.127 C 23.91 32.3 23.77 32.44 23.597 32.44 L 20.313 32.44 C 20.14 32.44 20 32.3 20 32.127 L 20 28.843 C 20 28.67 20.14 28.53 20.313 28.53 Z" style="stroke:none;fill:#FFFFFF;stroke-miterlimit:10;"/><path d="M 24.574 28.53 L 27.866 28.53 C 28.039 28.53 28.18 28.67 28.18 28.843 L 28.18 32.127 C 28.18 32.3 28.039 32.44 27.866 32.44 L 24.574 32.44 C 24.401 32.44 24.26 32.3 24.26 32.127 L 24.26 28.843 C 24.26 28.67 24.401 28.53 24.574 28.53 Z" style="stroke:none;fill:#FFFFFF;stroke-miterlimit:10;"/><path d="M 28.843 28.53 L 32.127 28.53 C 32.3 28.53 32.44 28.67 32.44 28.843 L 32.44 32.127 C 32.44 32.3 32.3 32.44 32.127 32.44 L 28.843 32.44 C 28.67 32.44 28.53 32.3 28.53 32.127 L 28.53 28.843 C 28.53 28.67 28.67 28.53 28.843 28.53 Z" style="stroke:none;fill:#FFFFFF;stroke-miterlimit:10;"/><g><path d=" M 41.24 27.455 L 41.24 29.454 Q 41.24 30.001 41.923 30.394 Q 42.607 30.787 44.11 30.787 L 52.277 30.787 Q 52.687 30.787 52.806 31.026 Q 52.943 31.248 52.943 31.709 Q 52.943 32.153 52.806 32.393 Q 52.687 32.632 52.277 32.632 L 44.042 32.632 Q 38.985 32.632 38.985 29.454 L 38.985 23.423 Q 38.985 20.245 44.042 20.245 L 46.587 20.245 Q 46.98 20.245 47.1 20.484 Q 47.237 20.706 47.237 21.168 Q 47.237 21.629 47.1 21.868 Q 46.98 22.09 46.587 22.09 L 44.11 22.09 Q 42.607 22.09 41.923 22.483 Q 41.24 22.859 41.24 23.423 L 41.24 25.61 L 52.328 25.61 Q 52.738 25.61 52.858 25.849 Q 52.994 26.071 52.994 26.532 Q 52.994 26.994 52.858 27.233 Q 52.738 27.455 52.328 27.455 L 41.24 27.455 Z " fill="rgb(255,255,255)"/><path d=" M 56.558 31.897 Q 56.558 32.393 56.284 32.546 Q 56.011 32.7 55.464 32.7 Q 54.918 32.7 54.644 32.546 Q 54.388 32.393 54.388 31.897 L 54.388 20.98 Q 54.388 20.484 54.644 20.331 Q 54.918 20.177 55.464 20.177 Q 56.011 20.177 56.284 20.331 Q 56.558 20.484 56.558 20.98 L 56.558 31.897 Z " fill="rgb(255,255,255)"/><path d=" M 62.737 32.632 Q 57.902 32.632 57.902 29.659 L 57.902 28.753 Q 57.902 25.781 62.737 25.781 L 70.05 25.781 L 70.05 25.764 Q 70.05 25.268 69.401 24.995 Q 68.768 24.704 67.316 24.704 L 65.71 24.704 Q 65.317 24.704 65.198 24.499 Q 65.078 24.277 65.078 23.85 Q 65.078 23.406 65.198 23.201 Q 65.317 22.979 65.71 22.979 L 67.385 22.979 Q 72.22 22.979 72.22 25.951 L 72.22 29.659 Q 72.22 32.632 67.385 32.632 L 62.737 32.632 Z  M 67.316 30.906 Q 68.751 30.906 69.401 30.547 Q 70.05 30.172 70.05 29.659 L 70.05 27.438 L 62.806 27.438 Q 61.371 27.438 60.721 27.797 Q 60.072 28.155 60.072 28.685 L 60.072 29.659 Q 60.072 30.172 60.721 30.547 Q 61.371 30.906 62.806 30.906 L 67.316 30.906 Z " fill="rgb(255,255,255)"/><path d=" M 73.453 25.541 Q 73.453 24.346 74.478 23.662 Q 75.503 22.979 77.519 22.979 L 79.86 22.979 Q 80.253 22.979 80.373 23.201 Q 80.492 23.406 80.492 23.85 Q 80.492 24.277 80.373 24.499 Q 80.253 24.704 79.86 24.704 L 77.502 24.704 Q 76.529 24.704 76.067 24.944 Q 75.606 25.166 75.606 25.559 L 75.606 26.003 Q 75.606 26.396 76.084 26.635 Q 76.563 26.874 77.588 26.874 L 81.364 26.874 Q 83.755 26.874 84.815 27.557 Q 85.874 28.241 85.874 29.471 L 85.874 30.018 Q 85.874 30.633 85.601 31.128 Q 85.327 31.607 84.746 31.948 Q 84.165 32.273 83.243 32.461 Q 82.32 32.632 81.039 32.632 L 74.12 32.632 Q 73.727 32.632 73.607 32.427 Q 73.487 32.205 73.487 31.76 Q 73.487 31.333 73.607 31.128 Q 73.727 30.906 74.12 30.906 L 81.364 30.906 Q 82.047 30.906 82.491 30.855 Q 82.952 30.787 83.209 30.684 Q 83.482 30.564 83.585 30.411 Q 83.687 30.257 83.687 30.052 L 83.687 29.437 Q 83.687 29.232 83.585 29.078 Q 83.482 28.924 83.226 28.805 Q 82.97 28.685 82.525 28.634 Q 82.098 28.565 81.432 28.565 L 77.605 28.565 Q 75.538 28.565 74.495 27.899 Q 73.453 27.216 73.453 26.037 L 73.453 25.541 Z " fill="rgb(255,255,255)"/><path d=" M 87.28 22.979 L 87.28 20.98 Q 87.28 20.484 87.536 20.331 Q 87.809 20.177 88.356 20.177 Q 88.903 20.177 89.176 20.331 Q 89.45 20.484 89.45 20.98 L 89.45 22.979 L 93.054 22.979 Q 93.447 22.979 93.55 23.201 Q 93.67 23.423 93.67 23.85 Q 93.67 24.277 93.55 24.499 Q 93.447 24.704 93.054 24.704 L 89.45 24.704 L 89.45 31.897 Q 89.45 32.393 89.176 32.546 Q 88.903 32.7 88.356 32.7 Q 87.809 32.7 87.536 32.546 Q 87.28 32.393 87.28 31.897 L 87.28 24.704 L 86.306 24.704 Q 85.913 24.704 85.793 24.499 Q 85.691 24.277 85.691 23.85 Q 85.691 23.423 85.793 23.201 Q 85.913 22.979 86.306 22.979 L 87.28 22.979 Z " fill="rgb(255,255,255)"/><path d=" M 96.834 31.897 Q 96.834 32.393 96.561 32.546 Q 96.288 32.7 95.741 32.7 Q 95.194 32.7 94.921 32.546 Q 94.664 32.393 94.664 31.897 L 94.664 23.833 Q 94.664 23.338 94.921 23.184 Q 95.194 23.03 95.741 23.03 Q 96.288 23.03 96.561 23.184 Q 96.834 23.337 96.834 23.833 L 96.834 31.897 Z " fill="rgb(255,255,255)"/><path d=" M 94.391 21.236 Q 94.391 20.689 94.699 20.433 Q 95.023 20.177 95.741 20.177 Q 96.458 20.177 96.766 20.433 Q 97.091 20.689 97.091 21.236 Q 97.091 21.783 96.766 22.039 Q 96.458 22.295 95.741 22.295 Q 95.023 22.295 94.699 22.039 Q 94.391 21.783 94.391 21.236 Z " fill="rgb(74,134,232)"/><path d=" M 103.27 27.267 Q 98.213 27.267 98.213 24.089 L 98.213 23.423 Q 98.213 20.245 103.27 20.245 L 104.979 20.245 Q 105.389 20.245 105.508 20.484 Q 105.645 20.706 105.645 21.168 Q 105.645 21.629 105.508 21.868 Q 105.389 22.09 104.979 22.09 L 103.219 22.09 Q 101.715 22.09 101.083 22.483 Q 100.468 22.859 100.468 23.423 L 100.468 24.089 Q 100.468 24.636 101.083 25.029 Q 101.715 25.422 103.219 25.422 L 107.251 25.422 Q 112.308 25.422 112.308 28.6 L 112.308 29.454 Q 112.308 32.632 107.251 32.632 L 98.879 32.632 Q 98.469 32.632 98.333 32.41 Q 98.213 32.17 98.213 31.709 Q 98.213 31.248 98.333 31.026 Q 98.469 30.787 98.879 30.787 L 107.302 30.787 Q 108.806 30.787 109.421 30.411 Q 110.053 30.018 110.053 29.454 L 110.053 28.6 Q 110.053 28.053 109.421 27.66 Q 108.806 27.267 107.302 27.267 L 103.27 27.267 Z " fill="rgb(255,255,255)"/><path d=" M 115.755 31.897 Q 115.755 32.393 115.481 32.546 Q 115.208 32.7 114.661 32.7 Q 114.114 32.7 113.841 32.546 Q 113.585 32.393 113.585 31.897 L 113.585 23.833 Q 113.585 23.338 113.841 23.184 Q 114.114 23.03 114.661 23.03 Q 115.208 23.03 115.481 23.184 Q 115.755 23.337 115.755 23.833 L 115.755 31.897 Z " fill="rgb(255,255,255)"/><path d=" M 113.311 21.236 Q 113.311 20.689 113.619 20.433 Q 113.944 20.177 114.661 20.177 Q 115.379 20.177 115.686 20.433 Q 116.011 20.689 116.011 21.236 Q 116.011 21.783 115.686 22.039 Q 115.379 22.295 114.661 22.295 Q 113.944 22.295 113.619 22.039 Q 113.311 21.783 113.311 21.236 Z " fill="rgb(74,134,232)"/><path d=" M 118.346 22.979 L 118.346 20.98 Q 118.346 20.484 118.603 20.331 Q 118.876 20.177 119.423 20.177 Q 119.969 20.177 120.243 20.331 Q 120.516 20.484 120.516 20.98 L 120.516 22.979 L 124.121 22.979 Q 124.514 22.979 124.617 23.201 Q 124.736 23.423 124.736 23.85 Q 124.736 24.277 124.617 24.499 Q 124.514 24.704 124.121 24.704 L 120.516 24.704 L 120.516 31.897 Q 120.516 32.393 120.243 32.546 Q 119.969 32.7 119.423 32.7 Q 118.876 32.7 118.603 32.546 Q 118.346 32.393 118.346 31.897 L 118.346 24.704 L 117.373 24.704 Q 116.98 24.704 116.86 24.499 Q 116.757 24.277 116.757 23.85 Q 116.757 23.423 116.86 23.201 Q 116.98 22.979 117.373 22.979 L 118.346 22.979 Z " fill="rgb(255,255,255)"/><path d=" M 127.447 28.788 L 127.447 29.659 Q 127.447 30.172 128.096 30.547 Q 128.745 30.906 130.18 30.906 L 132.145 30.906 Q 132.538 30.906 132.641 31.128 Q 132.76 31.333 132.76 31.76 Q 132.76 32.188 132.641 32.41 Q 132.538 32.632 132.145 32.632 L 130.112 32.632 Q 125.277 32.632 125.277 29.659 L 125.277 25.952 Q 125.277 22.979 130.112 22.979 L 134.059 22.979 Q 136.621 22.979 137.749 23.713 Q 138.894 24.448 138.894 25.952 L 138.894 27.916 Q 138.894 28.412 138.706 28.6 Q 138.518 28.788 137.869 28.788 L 127.447 28.788 Z  M 127.447 27.096 L 136.724 27.096 L 136.724 25.952 Q 136.724 25.354 136.075 25.029 Q 135.443 24.704 133.99 24.704 L 130.18 24.704 Q 128.745 24.704 128.096 25.063 Q 127.447 25.422 127.447 25.952 L 127.447 27.096 Z " fill="rgb(255,255,255)"/></g><g><path d=" M 72.038 63.992 L 72.038 65.767 Q 72.038 66.045 71.877 66.131 Q 71.727 66.216 71.417 66.216 Q 71.107 66.216 70.957 66.131 Q 70.808 66.045 70.808 65.767 L 70.808 63.992 L 69.022 63.992 Q 68.744 63.992 68.658 63.842 Q 68.572 63.682 68.572 63.371 Q 68.572 63.061 68.658 62.912 Q 68.744 62.762 69.022 62.762 L 70.808 62.762 L 70.808 60.965 Q 70.808 60.687 70.957 60.601 Q 71.107 60.516 71.417 60.516 Q 71.727 60.516 71.877 60.601 Q 72.038 60.687 72.038 60.965 L 72.038 62.762 L 73.824 62.762 Q 74.102 62.762 74.187 62.912 Q 74.273 63.061 74.273 63.371 Q 74.273 63.682 74.187 63.842 Q 74.102 63.992 73.824 63.992 L 72.038 63.992 Z " fill="rgb(255,255,255)"/><path d=" M 83.656 65.072 Q 83.656 64.762 83.592 64.548 Q 83.528 64.323 83.336 64.195 Q 83.143 64.056 82.79 63.992 Q 82.448 63.928 81.892 63.928 L 75.539 63.928 Q 75.282 63.928 75.197 63.789 Q 75.122 63.639 75.122 63.35 Q 75.122 63.061 75.197 62.922 Q 75.282 62.773 75.539 62.773 L 81.967 62.773 Q 82.448 62.773 82.769 62.73 Q 83.09 62.687 83.282 62.58 Q 83.485 62.462 83.56 62.259 Q 83.646 62.045 83.646 61.703 Q 83.646 61.425 83.582 61.222 Q 83.517 61.019 83.336 60.89 Q 83.164 60.762 82.844 60.708 Q 82.523 60.644 82.02 60.644 L 80.405 60.644 Q 80.148 60.644 80.063 60.505 Q 79.988 60.355 79.988 60.067 Q 79.988 59.778 80.063 59.639 Q 80.148 59.489 80.405 59.489 L 81.87 59.489 Q 82.566 59.489 83.143 59.585 Q 83.721 59.682 84.138 59.938 Q 84.555 60.184 84.779 60.612 Q 85.015 61.04 85.015 61.714 Q 85.015 62.281 84.801 62.698 Q 84.598 63.115 84.031 63.393 Q 84.523 63.575 84.811 63.949 Q 85.111 64.313 85.111 65.029 Q 85.111 65.714 84.833 66.152 Q 84.565 66.58 84.127 66.826 Q 83.688 67.061 83.111 67.158 Q 82.544 67.243 81.956 67.243 L 75.528 67.243 Q 75.272 67.243 75.186 67.104 Q 75.111 66.954 75.111 66.666 Q 75.111 66.377 75.186 66.238 Q 75.272 66.088 75.528 66.088 L 82.041 66.088 Q 82.566 66.088 82.886 66.035 Q 83.207 65.97 83.378 65.853 Q 83.549 65.724 83.603 65.532 Q 83.656 65.339 83.656 65.072 L 83.656 65.072 Z " fill="rgb(255,255,255)"/><path d=" M 88.93 67.243 Q 85.764 67.243 85.764 65.254 L 85.764 61.478 Q 85.764 59.489 88.93 59.489 L 90.855 59.489 Q 91.111 59.489 91.186 59.639 Q 91.272 59.778 91.272 60.067 Q 91.272 60.355 91.186 60.505 Q 91.111 60.644 90.855 60.644 L 88.972 60.644 Q 88.031 60.644 87.603 60.89 Q 87.176 61.126 87.176 61.478 L 87.176 62.109 L 92.951 62.109 Q 96.117 62.109 96.117 64.099 L 96.117 65.254 Q 96.117 67.243 92.951 67.243 L 88.93 67.243 Z  M 92.908 66.088 Q 93.849 66.088 94.277 65.842 Q 94.705 65.596 94.705 65.254 L 94.705 64.099 Q 94.705 63.746 94.277 63.51 Q 93.849 63.265 92.908 63.265 L 87.176 63.265 L 87.176 65.254 Q 87.176 65.596 87.603 65.842 Q 88.031 66.088 88.972 66.088 L 92.908 66.088 Z " fill="rgb(255,255,255)"/><path d=" M 109.141 59.489 Q 109.718 59.489 110.018 59.639 Q 110.317 59.789 110.317 60.227 Q 110.317 60.366 110.274 60.484 Q 110.232 60.591 110.103 60.74 L 104.724 66.997 Q 104.574 67.168 104.403 67.232 Q 104.242 67.286 103.996 67.286 Q 103.643 67.286 103.483 67.179 Q 103.323 67.072 103.323 66.847 Q 103.323 66.762 103.365 66.644 Q 103.408 66.516 103.579 66.323 L 108.488 60.644 L 100.777 60.644 Q 100.52 60.644 100.435 60.505 Q 100.36 60.355 100.36 60.067 Q 100.36 59.778 100.435 59.639 Q 100.52 59.489 100.777 59.489 L 109.141 59.489 Z " fill="rgb(255,255,255)"/><path d=" M 114.08 67.243 Q 110.914 67.243 110.914 65.254 L 110.914 61.478 Q 110.914 59.489 114.08 59.489 L 117.192 59.489 Q 120.358 59.489 120.358 61.478 L 120.358 65.254 Q 120.358 67.243 117.192 67.243 L 114.08 67.243 Z  M 117.149 66.088 Q 118.09 66.088 118.518 65.842 Q 118.946 65.596 118.946 65.254 L 118.946 61.478 Q 118.946 61.126 118.518 60.89 Q 118.09 60.644 117.149 60.644 L 114.122 60.644 Q 113.181 60.644 112.753 60.89 Q 112.326 61.126 112.326 61.478 L 112.326 65.254 Q 112.326 65.596 112.753 65.842 Q 113.181 66.088 114.122 66.088 L 117.149 66.088 Z " fill="rgb(255,255,255)"/><path d=" M 131.968 62.131 Q 135.134 62.131 135.134 64.12 L 135.134 65.254 Q 135.134 67.243 131.968 67.243 L 125.38 67.243 Q 125.123 67.243 125.038 67.104 Q 124.963 66.954 124.963 66.666 Q 124.963 66.377 125.038 66.238 Q 125.123 66.088 125.38 66.088 L 132 66.088 Q 132.941 66.088 133.326 65.853 Q 133.722 65.607 133.722 65.254 L 133.722 64.12 Q 133.722 63.778 133.326 63.532 Q 132.941 63.286 132 63.286 L 125.487 63.286 Q 125.262 63.286 125.123 63.168 Q 124.995 63.04 124.995 62.826 L 124.995 60.013 Q 124.995 59.489 125.498 59.489 L 130.214 59.489 Q 130.471 59.489 130.546 59.639 Q 130.631 59.778 130.631 60.067 Q 130.631 60.355 130.546 60.505 Q 130.471 60.644 130.214 60.644 L 126.407 60.644 L 126.407 62.131 L 131.968 62.131 Z " fill="rgb(255,255,255)"/><path d=" M 137.353 66.783 Q 137.353 67.093 137.171 67.19 Q 136.989 67.286 136.636 67.286 Q 136.294 67.286 136.112 67.19 Q 135.93 67.093 135.93 66.783 L 135.93 59.949 Q 135.93 59.639 136.112 59.543 Q 136.294 59.446 136.636 59.446 Q 136.989 59.446 137.171 59.543 Q 137.353 59.639 137.353 59.949 L 137.353 66.783 Z " fill="rgb(255,255,255)"/><path d=" M 145.316 62.131 Q 148.482 62.131 148.482 64.12 L 148.482 65.254 Q 148.482 67.243 145.316 67.243 L 138.728 67.243 Q 138.471 67.243 138.386 67.104 Q 138.311 66.954 138.311 66.666 Q 138.311 66.377 138.386 66.238 Q 138.471 66.088 138.728 66.088 L 145.348 66.088 Q 146.289 66.088 146.674 65.853 Q 147.07 65.607 147.07 65.254 L 147.07 64.12 Q 147.07 63.778 146.674 63.532 Q 146.289 63.286 145.348 63.286 L 138.835 63.286 Q 138.61 63.286 138.471 63.168 Q 138.343 63.04 138.343 62.826 L 138.343 60.013 Q 138.343 59.489 138.845 59.489 L 143.562 59.489 Q 143.819 59.489 143.893 59.639 Q 143.979 59.778 143.979 60.067 Q 143.979 60.355 143.893 60.505 Q 143.819 60.644 143.562 60.644 L 139.754 60.644 L 139.754 62.131 L 145.316 62.131 Z " fill="rgb(255,255,255)"/><path d=" M 156.087 67.243 Q 152.921 67.243 152.921 65.254 L 152.921 61.478 Q 152.921 59.489 156.087 59.489 L 159.199 59.489 Q 162.365 59.489 162.365 61.478 L 162.365 65.254 Q 162.365 67.243 159.199 67.243 L 156.087 67.243 Z  M 159.156 66.088 Q 160.097 66.088 160.525 65.842 Q 160.953 65.596 160.953 65.254 L 160.953 61.478 Q 160.953 61.126 160.525 60.89 Q 160.097 60.644 159.156 60.644 L 156.13 60.644 Q 155.188 60.644 154.761 60.89 Q 154.333 61.126 154.333 61.478 L 154.333 65.254 Q 154.333 65.596 154.761 65.842 Q 155.188 66.088 156.13 66.088 L 159.156 66.088 Z " fill="rgb(255,255,255)"/><path d=" M 170.236 62.131 Q 173.402 62.131 173.402 64.12 L 173.402 65.254 Q 173.402 67.243 170.236 67.243 L 163.648 67.243 Q 163.391 67.243 163.306 67.104 Q 163.231 66.954 163.231 66.666 Q 163.231 66.377 163.306 66.238 Q 163.391 66.088 163.648 66.088 L 170.268 66.088 Q 171.209 66.088 171.594 65.853 Q 171.99 65.607 171.99 65.254 L 171.99 64.12 Q 171.99 63.778 171.594 63.532 Q 171.209 63.286 170.268 63.286 L 163.755 63.286 Q 163.53 63.286 163.391 63.168 Q 163.263 63.04 163.263 62.826 L 163.263 60.013 Q 163.263 59.489 163.766 59.489 L 168.482 59.489 Q 168.739 59.489 168.814 59.639 Q 168.899 59.778 168.899 60.067 Q 168.899 60.355 168.814 60.505 Q 168.739 60.644 168.482 60.644 L 164.675 60.644 L 164.675 62.131 L 170.236 62.131 Z " fill="rgb(255,255,255)"/><path d=" M 181.161 62.131 Q 184.327 62.131 184.327 64.12 L 184.327 65.254 Q 184.327 67.243 181.161 67.243 L 174.573 67.243 Q 174.316 67.243 174.231 67.104 Q 174.156 66.954 174.156 66.666 Q 174.156 66.377 174.231 66.238 Q 174.316 66.088 174.573 66.088 L 181.193 66.088 Q 182.134 66.088 182.519 65.853 Q 182.915 65.607 182.915 65.254 L 182.915 64.12 Q 182.915 63.778 182.519 63.532 Q 182.134 63.286 181.193 63.286 L 174.68 63.286 Q 174.455 63.286 174.316 63.168 Q 174.188 63.04 174.188 62.826 L 174.188 60.013 Q 174.188 59.489 174.69 59.489 L 179.407 59.489 Q 179.664 59.489 179.738 59.639 Q 179.824 59.778 179.824 60.067 Q 179.824 60.355 179.738 60.505 Q 179.664 60.644 179.407 60.644 L 175.6 60.644 L 175.6 62.131 L 181.161 62.131 Z " fill="rgb(255,255,255)"/><path d=" M 186.546 66.783 Q 186.546 67.093 186.364 67.19 Q 186.182 67.286 185.829 67.286 Q 185.487 67.286 185.305 67.19 Q 185.123 67.093 185.123 66.783 L 185.123 59.949 Q 185.123 59.639 185.305 59.543 Q 185.487 59.446 185.829 59.446 Q 186.182 59.446 186.364 59.543 Q 186.546 59.639 186.546 59.949 L 186.546 66.783 Z " fill="rgb(255,255,255)"/></g><g><path d=" M 89.552 74.85 Q 89.552 74.446 89.965 74.446 L 94.942 74.446 Q 95.539 74.446 96.013 74.552 Q 96.496 74.648 96.83 74.833 Q 97.163 75.017 97.339 75.28 Q 97.523 75.544 97.523 75.869 L 97.523 77.142 Q 97.523 77.466 97.339 77.73 Q 97.163 77.993 96.83 78.177 Q 96.496 78.362 96.013 78.467 Q 95.539 78.564 94.942 78.564 L 90.72 78.564 L 90.72 80.434 Q 90.72 80.688 90.571 80.767 Q 90.421 80.846 90.132 80.846 Q 89.851 80.846 89.701 80.767 Q 89.552 80.688 89.552 80.434 L 89.552 74.85 Z  M 90.72 75.395 L 90.72 77.616 L 94.837 77.616 Q 95.285 77.616 95.574 77.572 Q 95.873 77.528 96.049 77.458 Q 96.224 77.379 96.294 77.282 Q 96.365 77.177 96.365 77.054 L 96.365 75.956 Q 96.365 75.842 96.294 75.737 Q 96.224 75.632 96.049 75.561 Q 95.873 75.482 95.574 75.438 Q 95.285 75.395 94.837 75.395 L 90.72 75.395 Z " fill="rgb(255,255,255)"/><path d=" M 99.981 80.811 Q 97.496 80.811 97.496 79.284 L 97.496 78.818 Q 97.496 77.291 99.981 77.291 L 103.738 77.291 L 103.738 77.282 Q 103.738 77.027 103.405 76.887 Q 103.08 76.738 102.334 76.738 L 101.508 76.738 Q 101.306 76.738 101.245 76.632 Q 101.184 76.518 101.184 76.299 Q 101.184 76.07 101.245 75.965 Q 101.306 75.851 101.508 75.851 L 102.369 75.851 Q 104.853 75.851 104.853 77.379 L 104.853 79.284 Q 104.853 80.811 102.369 80.811 L 99.981 80.811 Z  M 102.334 79.924 Q 103.071 79.924 103.405 79.74 Q 103.738 79.547 103.738 79.284 L 103.738 78.142 L 100.016 78.142 Q 99.278 78.142 98.945 78.327 Q 98.611 78.511 98.611 78.783 L 98.611 79.284 Q 98.611 79.547 98.945 79.74 Q 99.278 79.924 100.016 79.924 L 102.334 79.924 Z " fill="rgb(255,255,255)"/><path d=" M 106.681 81.873 Q 106.681 82.128 106.54 82.207 Q 106.4 82.286 106.119 82.286 Q 105.838 82.286 105.698 82.207 Q 105.566 82.128 105.566 81.873 L 105.566 77.379 Q 105.566 75.851 108.05 75.851 L 110.157 75.851 Q 112.642 75.851 112.642 77.379 L 112.642 79.284 Q 112.642 80.811 110.157 80.811 L 106.681 80.811 L 106.681 81.873 Z  M 110.122 79.924 Q 110.86 79.924 111.193 79.74 Q 111.527 79.556 111.527 79.284 L 111.527 77.379 Q 111.527 77.115 111.193 76.931 Q 110.86 76.738 110.122 76.738 L 108.085 76.738 Q 107.348 76.738 107.014 76.931 Q 106.681 77.115 106.681 77.379 L 106.681 79.924 L 110.122 79.924 Z " fill="rgb(255,255,255)"/><path d=" M 114.465 81.873 Q 114.465 82.128 114.325 82.207 Q 114.184 82.286 113.903 82.286 Q 113.623 82.286 113.482 82.207 Q 113.35 82.128 113.35 81.873 L 113.35 77.379 Q 113.35 75.851 115.835 75.851 L 117.942 75.851 Q 120.426 75.851 120.426 77.379 L 120.426 79.284 Q 120.426 80.811 117.942 80.811 L 114.465 80.811 L 114.465 81.873 Z  M 117.907 79.924 Q 118.644 79.924 118.978 79.74 Q 119.311 79.556 119.311 79.284 L 119.311 77.379 Q 119.311 77.115 118.978 76.931 Q 118.644 76.738 117.907 76.738 L 115.87 76.738 Q 115.132 76.738 114.799 76.931 Q 114.465 77.115 114.465 77.379 L 114.465 79.924 L 117.907 79.924 Z " fill="rgb(255,255,255)"/><path d=" M 127.759 74.446 Q 127.97 74.446 128.032 74.569 Q 128.093 74.683 128.093 74.92 Q 128.093 75.157 128.032 75.28 Q 127.97 75.395 127.759 75.395 L 126.838 75.395 Q 126.065 75.395 125.714 75.596 Q 125.372 75.79 125.372 76.079 L 125.372 77.203 L 131.06 77.203 Q 131.271 77.203 131.332 77.326 Q 131.403 77.44 131.403 77.677 Q 131.403 77.914 131.332 78.037 Q 131.271 78.151 131.06 78.151 L 125.372 78.151 L 125.372 80.434 Q 125.372 80.688 125.222 80.767 Q 125.073 80.846 124.783 80.846 Q 124.502 80.846 124.353 80.767 Q 124.204 80.688 124.204 80.434 L 124.204 76.079 Q 124.204 74.446 126.802 74.446 L 127.759 74.446 Z " fill="rgb(255,255,255)"/><path d=" M 132.956 78.836 L 132.956 79.284 Q 132.956 79.547 133.29 79.74 Q 133.624 79.924 134.361 79.924 L 135.371 79.924 Q 135.573 79.924 135.625 80.039 Q 135.687 80.144 135.687 80.363 Q 135.687 80.583 135.625 80.697 Q 135.573 80.811 135.371 80.811 L 134.326 80.811 Q 131.842 80.811 131.842 79.284 L 131.842 77.379 Q 131.842 75.851 134.326 75.851 L 136.354 75.851 Q 137.671 75.851 138.25 76.229 Q 138.838 76.606 138.838 77.379 L 138.838 78.388 Q 138.838 78.643 138.742 78.739 Q 138.645 78.836 138.312 78.836 L 132.956 78.836 Z  M 132.956 77.967 L 137.723 77.967 L 137.723 77.379 Q 137.723 77.071 137.39 76.904 Q 137.065 76.738 136.319 76.738 L 134.361 76.738 Q 133.624 76.738 133.29 76.922 Q 132.956 77.106 132.956 77.379 L 132.956 77.967 Z " fill="rgb(255,255,255)"/><path d=" M 142.44 75.851 Q 142.642 75.851 142.694 75.965 Q 142.756 76.079 142.756 76.299 Q 142.756 76.518 142.694 76.632 Q 142.642 76.738 142.44 76.738 L 141.755 76.738 Q 141.105 76.738 140.851 76.904 Q 140.596 77.071 140.596 77.37 L 140.596 80.434 Q 140.596 80.688 140.456 80.767 Q 140.315 80.846 140.034 80.846 Q 139.753 80.846 139.613 80.767 Q 139.481 80.688 139.481 80.434 L 139.481 77.37 Q 139.481 76.606 140.061 76.229 Q 140.649 75.851 141.755 75.851 L 142.44 75.851 Z " fill="rgb(255,255,255)"/><path d=" M 144.239 78.836 L 144.239 79.284 Q 144.239 79.547 144.572 79.74 Q 144.906 79.924 145.643 79.924 L 146.653 79.924 Q 146.855 79.924 146.908 80.039 Q 146.969 80.144 146.969 80.363 Q 146.969 80.583 146.908 80.697 Q 146.855 80.811 146.653 80.811 L 145.608 80.811 Q 143.124 80.811 143.124 79.284 L 143.124 77.379 Q 143.124 75.851 145.608 75.851 L 147.636 75.851 Q 148.953 75.851 149.532 76.229 Q 150.121 76.606 150.121 77.379 L 150.121 78.388 Q 150.121 78.643 150.024 78.739 Q 149.927 78.836 149.594 78.836 L 144.239 78.836 Z  M 144.239 77.967 L 149.006 77.967 L 149.006 77.379 Q 149.006 77.071 148.672 76.904 Q 148.347 76.738 147.601 76.738 L 145.643 76.738 Q 144.906 76.738 144.572 76.922 Q 144.239 77.106 144.239 77.379 L 144.239 77.967 Z " fill="rgb(255,255,255)"/><path d=" M 151.317 80.846 Q 151.036 80.846 150.895 80.767 Q 150.763 80.688 150.763 80.434 L 150.763 77.379 Q 150.763 75.851 153.248 75.851 L 155.162 75.851 Q 157.646 75.851 157.646 77.379 L 157.646 80.434 Q 157.646 80.688 157.506 80.767 Q 157.365 80.846 157.084 80.846 Q 156.803 80.846 156.663 80.767 Q 156.531 80.688 156.531 80.434 L 156.531 77.379 Q 156.531 77.106 156.198 76.922 Q 155.864 76.738 155.127 76.738 L 153.283 76.738 Q 152.546 76.738 152.212 76.922 Q 151.878 77.106 151.878 77.379 L 151.878 80.434 Q 151.878 80.688 151.738 80.767 Q 151.597 80.846 151.317 80.846 L 151.317 80.846 Z " fill="rgb(255,255,255)"/><path d=" M 160.834 80.811 Q 158.35 80.811 158.35 79.284 L 158.35 77.379 Q 158.35 75.851 160.834 75.851 L 165.224 75.851 Q 165.425 75.851 165.487 75.965 Q 165.548 76.07 165.548 76.299 Q 165.548 76.518 165.487 76.632 Q 165.425 76.738 165.224 76.738 L 160.869 76.738 Q 160.132 76.738 159.798 76.922 Q 159.465 77.106 159.465 77.379 L 159.465 79.284 Q 159.465 79.547 159.798 79.74 Q 160.132 79.924 160.869 79.924 L 165.25 79.924 Q 165.452 79.924 165.504 80.039 Q 165.566 80.144 165.566 80.363 Q 165.566 80.583 165.504 80.697 Q 165.452 80.811 165.25 80.811 L 160.834 80.811 Z " fill="rgb(255,255,255)"/></g><rect x="-342.638" y="27.122" width="87.489" height="87.489" transform="matrix(1,0,0,1,0,0)" fill="rgb(152,0,0)"/><rect x="-239.401" y="0" width="141.732" height="141.732" transform="matrix(1,0,0,1,0,0)" fill="rgb(152,0,0)"/><g><path d="M 114.275 109.2 L 124.025 109.2 C 124.784 109.2 125.4 109.816 125.4 110.575 L 125.4 120.325 C 125.4 121.084 124.784 121.7 124.025 121.7 L 114.275 121.7 C 113.516 121.7 112.9 121.084 112.9 120.325 L 112.9 110.575 C 112.9 109.816 113.516 109.2 114.275 109.2 Z" style="stroke:none;fill:#FFFFFF;stroke-miterlimit:10;"/><path d="M 129.945 109.2 L 139.695 109.2 C 140.454 109.2 141.07 109.816 141.07 110.575 L 141.07 120.325 C 141.07 121.084 140.454 121.7 139.695 121.7 L 129.945 121.7 C 129.186 121.7 128.57 121.084 128.57 120.325 L 128.57 110.575 C 128.57 109.816 129.186 109.2 129.945 109.2 Z" style="stroke:none;fill:#FFFFFF;stroke-miterlimit:10;"/><path d="M 145.625 109.2 L 155.375 109.2 C 156.134 109.2 156.75 109.816 156.75 110.575 L 156.75 120.325 C 156.75 121.084 156.134 121.7 155.375 121.7 L 145.625 121.7 C 144.866 121.7 144.25 121.084 144.25 120.325 L 144.25 110.575 C 144.25 109.816 144.866 109.2 145.625 109.2 Z" style="stroke:none;fill:#FFFFFF;stroke-miterlimit:10;"/><path d="M 161.295 109.2 L 171.045 109.2 C 171.804 109.2 172.42 109.816 172.42 110.575 L 172.42 120.325 C 172.42 121.084 171.804 121.7 171.045 121.7 L 161.295 121.7 C 160.536 121.7 159.92 121.084 159.92 120.325 L 159.92 110.575 C 159.92 109.816 160.536 109.2 161.295 109.2 Z" style="stroke:none;fill:#FFFFFF;stroke-miterlimit:10;"/><path d="M 176.965 109.2 L 186.715 109.2 C 187.474 109.2 188.09 109.816 188.09 110.575 L 188.09 120.325 C 188.09 121.084 187.474 121.7 186.715 121.7 L 176.965 121.7 C 176.206 121.7 175.59 121.084 175.59 120.325 L 175.59 110.575 C 175.59 109.816 176.206 109.2 176.965 109.2 Z" style="stroke:none;fill:#FFFFFF;stroke-miterlimit:10;"/><path d="M 192.645 109.2 L 202.395 109.2 C 203.154 109.2 203.77 109.816 203.77 110.575 L 203.77 120.325 C 203.77 121.084 203.154 121.7 202.395 121.7 L 192.645 121.7 C 191.886 121.7 191.27 121.084 191.27 120.325 L 191.27 110.575 C 191.27 109.816 191.886 109.2 192.645 109.2 Z" style="stroke:none;fill:#FFFFFF;stroke-miterlimit:10;"/><path d="M 208.315 109.2 L 218.065 109.2 C 218.824 109.2 219.44 109.816 219.44 110.575 L 219.44 120.325 C 219.44 121.084 218.824 121.7 218.065 121.7 L 208.315 121.7 C 207.556 121.7 206.94 121.084 206.94 120.325 L 206.94 110.575 C 206.94 109.816 207.556 109.2 208.315 109.2 Z" style="stroke:none;fill:#FFFFFF;stroke-miterlimit:10;"/><path d="M 223.985 109.2 L 233.735 109.2 C 234.494 109.2 235.11 109.816 235.11 110.575 L 235.11 120.325 C 235.11 121.084 234.494 121.7 233.735 121.7 L 223.985 121.7 C 223.226 121.7 222.61 121.084 222.61 120.325 L 222.61 110.575 C 222.61 109.816 223.226 109.2 223.985 109.2 Z" style="stroke:none;fill:#4A86E8;stroke-miterlimit:10;"/></g></g></svg>