<?xml version="1.0" encoding="UTF-8" standalone="no"?><!-- Generator: Gravit.io --><svg xmlns="http://www.w3.org/2000/svg" xmlns:xlink="http://www.w3.org/1999/xlink" style="isolation:isolate" viewBox="0 0 255.118 141.732" width="255.118pt" height="141.732pt"><defs><clipPath id="_clipPath_BKExm8qUK7iC2GE79dmNsrgadNUC1mjG"><rect width="255.118" height="141.732"/></clipPath></defs><g clip-path="url(#_clipPath_BKExm8qUK7iC2GE79dmNsrgadNUC1mjG)"><rect x="0" y="0" width="255.118" height="141.732" transform="matrix(1,0,0,1,0,0)" fill="rgb(235,235,235)"/><rect x="0" y="0" width="255.118" height="141.732" transform="matrix(1,0,0,1,0,0)" fill="rgb(23,23,23)"/><rect x="-342.638" y="27.122" width="87.489" height="87.489" transform="matrix(1,0,0,1,0,0)" fill="rgb(152,0,0)"/><rect x="-666.451" y="54.205" width="33.321" height="33.321" transform="matrix(1,0,0,1,0,0)" fill="rgb(152,0,0)"/><rect x="-780.664" y="43.863" width="54.006" height="54.006" transform="matrix(1,0,0,1,0,0)" fill="rgb(152,0,0)"/><rect x="-239.401" y="0" width="141.732" height="141.732" transform="matrix(1,0,0,1,0,0)" fill="rgb(152,0,0)"/><rect x="-319.66" y="-420.759" width="262.44" height="262.44" transform="matrix(1,0,0,1,0,0)" fill="rgb(152,0,0)"/><g><g><path d="M 86.031 27.13 L 109.139 27.13 C 110.354 27.13 111.34 28.116 111.34 29.33 L 111.34 52.43 C 111.34 53.644 110.354 54.63 109.139 54.63 L 86.031 54.63 C 84.816 54.63 83.83 53.644 83.83 52.43 L 83.83 29.33 C 83.83 28.116 84.816 27.13 86.031 27.13 Z" style="stroke:none;fill:#3D5A80;stroke-miterlimit:10;"/><path d="M 116.001 27.13 L 139.109 27.13 C 140.324 27.13 141.31 28.116 141.31 29.33 L 141.31 52.43 C 141.31 53.644 140.324 54.63 139.109 54.63 L 116.001 54.63 C 114.786 54.63 113.8 53.644 113.8 52.43 L 113.8 29.33 C 113.8 28.116 114.786 27.13 116.001 27.13 Z" style="stroke:none;fill:#3D5A80;stroke-miterlimit:10;"/><path d="M 86.031 57.1 L 109.139 57.1 C 110.354 57.1 111.34 58.086 111.34 59.301 L 111.34 82.409 C 111.34 83.624 110.354 84.61 109.139 84.61 L 86.031 84.61 C 84.816 84.61 83.83 83.624 83.83 82.409 L 83.83 59.301 C 83.83 58.086 84.816 57.1 86.031 57.1 Z" style="stroke:none;fill:#3D5A80;stroke-miterlimit:10;"/><path d="M 116.001 57.1 L 139.109 57.1 C 140.324 57.1 141.31 58.086 141.31 59.301 L 141.31 82.409 C 141.31 83.624 140.324 84.61 139.109 84.61 L 116.001 84.61 C 114.786 84.61 113.8 83.624 113.8 82.409 L 113.8 59.301 C 113.8 58.086 114.786 57.1 116.001 57.1 Z" style="stroke:none;fill:#3D5A80;stroke-miterlimit:10;"/><path d="M 86.031 87.07 L 109.139 87.07 C 110.354 87.07 111.34 88.056 111.34 89.271 L 111.34 112.379 C 111.34 113.594 110.354 114.58 109.139 114.58 L 86.031 114.58 C 84.816 114.58 83.83 113.594 83.83 112.379 L 83.83 89.271 C 83.83 88.056 84.816 87.07 86.031 87.07 Z" style="stroke:none;fill:#3D5A80;stroke-miterlimit:10;"/><path d="M 116.001 87.07 L 139.109 87.07 C 140.324 87.07 141.31 88.056 141.31 89.271 L 141.31 112.379 C 141.31 113.594 140.324 114.58 139.109 114.58 L 116.001 114.58 C 114.786 114.58 113.8 113.594 113.8 112.379 L 113.8 89.271 C 113.8 88.056 114.786 87.07 116.001 87.07 Z" style="stroke:none;fill:#3D5A80;stroke-miterlimit:10;"/><path d="M 145.511 87.1 L 168.619 87.1 C 169.834 87.1 170.82 88.086 170.82 89.301 L 170.82 112.409 C 170.82 113.624 169.834 114.61 168.619 114.61 L 145.511 114.61 C 144.296 114.61 143.31 113.624 143.31 112.409 L 143.31 89.301 C 143.31 88.086 144.296 87.1 145.511 87.1 Z" style="stroke:none;fill:#3D5A80;stroke-miterlimit:10;"/><path d="M 145.98 57.1 L 169.08 57.1 C 170.294 57.1 171.28 58.086 171.28 59.301 L 171.28 82.409 C 171.28 83.624 170.294 84.61 169.08 84.61 L 145.98 84.61 C 144.766 84.61 143.78 83.624 143.78 82.409 L 143.78 59.301 C 143.78 58.086 144.766 57.1 145.98 57.1 Z" style="stroke:none;fill:#4A86E8;stroke-miterlimit:10;"/></g></g></g></svg>