<?xml version="1.0" encoding="UTF-8" standalone="no"?><!-- Generator: Gravit.io --><svg xmlns="http://www.w3.org/2000/svg" xmlns:xlink="http://www.w3.org/1999/xlink" style="isolation:isolate" viewBox="0 0 2048 2048" width="2048pt" height="2048pt"><defs><clipPath id="_clipPath_X8WpGIpD67NAV9Rb9DKg0xlY7ZnbjFNS"><rect width="2048" height="2048"/></clipPath></defs><g clip-path="url(#_clipPath_X8WpGIpD67NAV9Rb9DKg0xlY7ZnbjFNS)"><rect width="2048" height="2048" style="fill:rgb(46,46,46)"/><g><path d="M 423.714 391.9 L 757.756 391.9 C 775.315 391.9 789.57 406.155 789.57 423.714 L 789.57 757.756 C 789.57 775.315 775.315 789.57 757.756 789.57 L 423.714 789.57 C 406.155 789.57 391.9 775.315 391.9 757.756 L 391.9 423.714 C 391.9 406.155 406.155 391.9 423.714 391.9 Z" style="stroke:none;fill:#FFFFFF;stroke-miterlimit:10;"/><path d="M 856.983 391.9 L 1191.017 391.9 C 1208.575 391.9 1222.83 406.155 1222.83 423.714 L 1222.83 757.756 C 1222.83 775.315 1208.575 789.57 1191.017 789.57 L 856.983 789.57 C 839.425 789.57 825.17 775.315 825.17 757.756 L 825.17 423.714 C 825.17 406.155 839.425 391.9 856.983 391.9 Z" style="stroke:none;fill:#FFFFFF;stroke-miterlimit:10;"/><path d="M 423.714 825.17 L 757.756 825.17 C 775.315 825.17 789.57 839.425 789.57 856.983 L 789.57 1191.017 C 789.57 1208.575 775.315 1222.83 757.756 1222.83 L 423.714 1222.83 C 406.155 1222.83 391.9 1208.575 391.9 1191.017 L 391.9 856.983 C 391.9 839.425 406.155 825.17 423.714 825.17 Z" style="stroke:none;fill:#FFFFFF;stroke-miterlimit:10;"/><path d="M 856.983 825.17 L 1191.017 825.17 C 1208.575 825.17 1222.83 839.425 1222.83 856.983 L 1222.83 1191.017 C 1222.83 1208.575 1208.575 1222.83 1191.017 1222.83 L 856.983 1222.83 C 839.425 1222.83 825.17 1208.575 825.17 1191.017 L 825.17 856.983 C 825.17 839.425 839.425 825.17 856.983 825.17 Z" style="stroke:none;fill:#FFFFFF;stroke-miterlimit:10;"/><path d="M 423.714 1258.43 L 757.756 1258.43 C 775.315 1258.43 789.57 1272.685 789.57 1290.244 L 789.57 1624.286 C 789.57 1641.845 775.315 1656.1 757.756 1656.1 L 423.714 1656.1 C 406.155 1656.1 391.9 1641.845 391.9 1624.286 L 391.9 1290.244 C 391.9 1272.685 406.155 1258.43 423.714 1258.43 Z" style="stroke:none;fill:#FFFFFF;stroke-miterlimit:10;"/><path d="M 856.983 1258.43 L 1191.017 1258.43 C 1208.575 1258.43 1222.83 1272.685 1222.83 1290.244 L 1222.83 1624.286 C 1222.83 1641.845 1208.575 1656.1 1191.017 1656.1 L 856.983 1656.1 C 839.425 1656.1 825.17 1641.845 825.17 1624.286 L 825.17 1290.244 C 825.17 1272.685 839.425 1258.43 856.983 1258.43 Z" style="stroke:none;fill:#FFFFFF;stroke-miterlimit:10;"/><path d="M 1290.244 1258.43 L 1624.286 1258.43 C 1641.845 1258.43 1656.1 1272.685 1656.1 1290.244 L 1656.1 1624.286 C 1656.1 1641.845 1641.845 1656.1 1624.286 1656.1 L 1290.244 1656.1 C 1272.685 1656.1 1258.43 1641.845 1258.43 1624.286 L 1258.43 1290.244 C 1258.43 1272.685 1272.685 1258.43 1290.244 1258.43 Z" style="stroke:none;fill:#FFFFFF;stroke-miterlimit:10;"/><path d="M 1290.244 825.17 L 1624.286 825.17 C 1641.845 825.17 1656.1 839.425 1656.1 856.983 L 1656.1 1191.017 C 1656.1 1208.575 1641.845 1222.83 1624.286 1222.83 L 1290.244 1222.83 C 1272.685 1222.83 1258.43 1208.575 1258.43 1191.017 L 1258.43 856.983 C 1258.43 839.425 1272.685 825.17 1290.244 825.17 Z" style="stroke:none;fill:#4A86E8;stroke-miterlimit:10;"/></g></g></svg>