<?xml version="1.0" encoding="UTF-8" standalone="no"?><!-- Generator: Gravit.io --><svg xmlns="http://www.w3.org/2000/svg" xmlns:xlink="http://www.w3.org/1999/xlink" style="isolation:isolate" viewBox="0 0 2120 1192" width="2120pt" height="1192pt"><defs><clipPath id="_clipPath_JPCrpDnThUPxchsopnvkflvvsexi4a8i"><rect width="2120" height="1192"/></clipPath></defs><g clip-path="url(#_clipPath_JPCrpDnThUPxchsopnvkflvvsexi4a8i)"><rect x="0" y="0" width="2120" height="1192" transform="matrix(1,0,0,1,0,0)" fill="rgb(61,90,128)"/><g><g><path d="M 470.532 532.7 L 503.308 532.7 C 505.031 532.7 506.43 534.099 506.43 535.822 L 506.43 568.598 C 506.43 570.321 505.031 571.72 503.308 571.72 L 470.532 571.72 C 468.809 571.72 467.41 570.321 467.41 568.598 L 467.41 535.822 C 467.41 534.099 468.809 532.7 470.532 532.7 Z" style="stroke:none;fill:#FFFFFF;stroke-miterlimit:10;"/><path d="M 513.042 532.7 L 545.818 532.7 C 547.541 532.7 548.94 534.099 548.94 535.822 L 548.94 568.598 C 548.94 570.321 547.541 571.72 545.818 571.72 L 513.042 571.72 C 511.319 571.72 509.92 570.321 509.92 568.598 L 509.92 535.822 C 509.92 534.099 511.319 532.7 513.042 532.7 Z" style="stroke:none;fill:#FFFFFF;stroke-miterlimit:10;"/><path d="M 470.532 575.21 L 503.308 575.21 C 505.031 575.21 506.43 576.609 506.43 578.332 L 506.43 611.108 C 506.43 612.831 505.031 614.23 503.308 614.23 L 470.532 614.23 C 468.809 614.23 467.41 612.831 467.41 611.108 L 467.41 578.332 C 467.41 576.609 468.809 575.21 470.532 575.21 Z" style="stroke:none;fill:#FFFFFF;stroke-miterlimit:10;"/><path d="M 513.042 575.21 L 545.818 575.21 C 547.541 575.21 548.94 576.609 548.94 578.332 L 548.94 611.108 C 548.94 612.831 547.541 614.23 545.818 614.23 L 513.042 614.23 C 511.319 614.23 509.92 612.831 509.92 611.108 L 509.92 578.332 C 509.92 576.609 511.319 575.21 513.042 575.21 Z" style="stroke:none;fill:#FFFFFF;stroke-miterlimit:10;"/><path d="M 555.552 575.21 L 588.328 575.21 C 590.051 575.21 591.45 576.609 591.45 578.332 L 591.45 611.108 C 591.45 612.831 590.051 614.23 588.328 614.23 L 555.552 614.23 C 553.829 614.23 552.43 612.831 552.43 611.108 L 552.43 578.332 C 552.43 576.609 553.829 575.21 555.552 575.21 Z" style="stroke:none;fill:#4A86E8;stroke-miterlimit:10;"/><path d="M 470.532 617.73 L 503.308 617.73 C 505.031 617.73 506.43 619.129 506.43 620.852 L 506.43 653.628 C 506.43 655.351 505.031 656.75 503.308 656.75 L 470.532 656.75 C 468.809 656.75 467.41 655.351 467.41 653.628 L 467.41 620.852 C 467.41 619.129 468.809 617.73 470.532 617.73 Z" style="stroke:none;fill:#FFFFFF;stroke-miterlimit:10;"/><path d="M 513.042 617.73 L 545.818 617.73 C 547.541 617.73 548.94 619.129 548.94 620.852 L 548.94 653.628 C 548.94 655.351 547.541 656.75 545.818 656.75 L 513.042 656.75 C 511.319 656.75 509.92 655.351 509.92 653.628 L 509.92 620.852 C 509.92 619.129 511.319 617.73 513.042 617.73 Z" style="stroke:none;fill:#FFFFFF;stroke-miterlimit:10;"/><path d="M 555.552 617.73 L 588.328 617.73 C 590.051 617.73 591.45 619.129 591.45 620.852 L 591.45 653.628 C 591.45 655.351 590.051 656.75 588.328 656.75 L 555.552 656.75 C 553.829 656.75 552.43 655.351 552.43 653.628 L 552.43 620.852 C 552.43 619.129 553.829 617.73 555.552 617.73 Z" style="stroke:none;fill:#FFFFFF;stroke-miterlimit:10;"/><g><path d=" M 679.135 607.015 L 679.135 626.941 Q 679.135 632.391 685.947 636.308 Q 692.759 640.226 707.747 640.226 L 789.155 640.226 Q 793.243 640.226 794.435 642.61 Q 795.797 644.824 795.797 649.423 Q 795.797 653.85 794.435 656.235 Q 793.243 658.619 789.155 658.619 L 707.066 658.619 Q 656.654 658.619 656.654 626.941 L 656.654 566.822 Q 656.654 535.144 707.066 535.144 L 732.442 535.144 Q 736.359 535.144 737.551 537.528 Q 738.914 539.742 738.914 544.341 Q 738.914 548.939 737.551 551.323 Q 736.359 553.538 732.442 553.538 L 707.747 553.538 Q 692.759 553.538 685.947 557.455 Q 679.135 561.201 679.135 566.822 L 679.135 588.622 L 789.666 588.622 Q 793.754 588.622 794.946 591.006 Q 796.308 593.22 796.308 597.818 Q 796.308 602.417 794.946 604.801 Q 793.754 607.015 789.666 607.015 L 679.135 607.015 Z " fill="rgb(255,255,255)"/><path d=" M 831.831 651.296 Q 831.831 656.235 829.106 657.768 Q 826.381 659.3 820.931 659.3 Q 815.482 659.3 812.757 657.768 Q 810.202 656.236 810.202 651.296 L 810.202 607.859 L 810.202 542.467 Q 810.202 537.528 812.757 535.996 Q 815.482 534.464 820.931 534.464 Q 826.381 534.464 829.106 535.996 Q 831.831 537.528 831.831 542.467 L 831.831 651.296 Z " fill="rgb(255,255,255)"/><path d=" M 893.433 658.619 Q 845.235 658.619 845.235 628.985 L 845.235 619.958 Q 845.235 590.325 893.433 590.325 L 966.326 590.325 L 966.326 590.154 Q 966.326 585.215 959.854 582.49 Q 953.553 579.595 939.076 579.595 L 923.067 579.595 Q 919.15 579.595 917.958 577.551 Q 916.766 575.337 916.766 571.079 Q 916.766 566.651 917.958 564.607 Q 919.15 562.393 923.067 562.393 L 939.758 562.393 Q 987.956 562.393 987.956 592.027 L 987.956 628.985 Q 987.956 658.619 939.758 658.619 L 893.433 658.619 Z  M 939.076 641.418 Q 953.383 641.418 959.854 637.841 Q 966.326 634.095 966.326 628.985 L 966.326 606.845 L 894.114 606.845 Q 879.808 606.845 873.337 610.421 Q 866.865 613.998 866.865 619.277 L 866.865 628.985 Q 866.865 634.095 873.337 637.841 Q 879.808 641.418 894.114 641.418 L 939.076 641.418 Z " fill="rgb(255,255,255)"/><path d=" M 1000.253 587.94 Q 1000.253 576.018 1010.471 569.206 Q 1020.69 562.394 1040.786 562.394 L 1064.119 562.394 Q 1068.036 562.394 1069.228 564.608 Q 1070.42 566.651 1070.42 571.079 Q 1070.42 575.337 1069.228 577.551 Q 1068.036 579.595 1064.119 579.595 L 1040.616 579.595 Q 1030.908 579.595 1026.31 581.979 Q 1021.712 584.193 1021.712 588.111 L 1021.712 592.539 Q 1021.712 596.456 1026.48 598.84 Q 1031.249 601.224 1041.468 601.224 L 1079.106 601.224 Q 1102.95 601.224 1113.509 608.037 Q 1124.068 614.849 1124.068 627.112 L 1124.068 632.562 Q 1124.068 638.693 1121.343 643.632 Q 1118.618 648.401 1112.828 651.807 Q 1107.037 655.042 1097.84 656.916 Q 1088.644 658.619 1075.87 658.619 L 1006.895 658.619 Q 1002.977 658.619 1001.785 656.575 Q 1000.593 654.361 1000.593 649.933 Q 1000.593 645.675 1001.785 643.632 Q 1002.977 641.418 1006.895 641.418 L 1079.106 641.418 Q 1085.919 641.418 1090.347 640.906 Q 1094.945 640.225 1097.5 639.203 Q 1100.225 638.011 1101.247 636.478 Q 1102.269 634.946 1102.269 632.901 L 1102.269 626.77 Q 1102.269 624.727 1101.247 623.194 Q 1100.225 621.66 1097.67 620.469 Q 1095.115 619.276 1090.687 618.766 Q 1086.43 618.085 1079.788 618.085 L 1041.638 618.085 Q 1021.03 618.085 1010.641 611.443 Q 1000.253 604.631 1000.253 592.879 L 1000.253 587.94 Z " fill="rgb(255,255,255)"/><path d=" M 1138.082 562.394 L 1138.082 542.467 Q 1138.082 537.528 1140.636 535.996 Q 1143.361 534.464 1148.811 534.464 Q 1154.261 534.464 1156.986 535.996 Q 1159.711 537.528 1159.711 542.467 L 1159.711 562.394 L 1195.647 562.394 Q 1199.564 562.394 1200.586 564.608 Q 1201.778 566.822 1201.778 571.079 Q 1201.778 575.337 1200.586 577.551 Q 1199.564 579.595 1195.647 579.595 L 1159.711 579.595 L 1159.711 651.296 Q 1159.711 656.235 1156.986 657.768 Q 1154.261 659.3 1148.811 659.3 Q 1143.361 659.3 1140.636 657.768 Q 1138.082 656.236 1138.082 651.296 L 1138.082 579.595 L 1128.374 579.595 Q 1124.457 579.595 1123.265 577.551 Q 1122.243 575.337 1122.243 571.079 Q 1122.243 566.822 1123.265 564.608 Q 1124.457 562.394 1128.374 562.394 L 1138.082 562.394 Z " fill="rgb(255,255,255)"/><path d=" M 1233.325 651.296 Q 1233.325 656.235 1230.6 657.768 Q 1227.875 659.3 1222.425 659.3 Q 1216.975 659.3 1214.25 657.768 Q 1211.696 656.236 1211.696 651.296 L 1211.696 570.909 Q 1211.696 565.97 1214.25 564.437 Q 1216.975 562.904 1222.425 562.904 Q 1227.875 562.904 1230.6 564.437 Q 1233.325 565.969 1233.325 570.909 L 1233.325 651.296 Z " fill="rgb(255,255,255)"/><path d=" M 1208.971 545.022 Q 1208.971 539.572 1212.036 537.017 Q 1215.272 534.463 1222.425 534.463 Q 1229.578 534.463 1232.644 537.017 Q 1235.88 539.572 1235.88 545.022 Q 1235.88 550.472 1232.644 553.027 Q 1229.578 555.581 1222.425 555.581 Q 1215.272 555.581 1212.036 553.027 Q 1208.971 550.472 1208.971 545.022 Z " fill="rgb(74,134,232)"/><path d=" M 1297.482 605.142 Q 1247.07 605.142 1247.07 573.464 L 1247.07 566.822 Q 1247.07 535.144 1297.482 535.144 L 1314.513 535.144 Q 1318.6 535.144 1319.792 537.528 Q 1321.155 539.742 1321.155 544.341 Q 1321.155 548.939 1319.792 551.323 Q 1318.6 553.538 1314.513 553.538 L 1296.971 553.538 Q 1281.983 553.538 1275.682 557.455 Q 1269.551 561.201 1269.551 566.822 L 1269.551 573.464 Q 1269.551 578.914 1275.682 582.831 Q 1281.983 586.748 1296.971 586.748 L 1337.164 586.748 Q 1387.576 586.748 1387.576 618.426 L 1387.576 626.941 Q 1387.576 658.619 1337.164 658.619 L 1253.712 658.619 Q 1249.624 658.619 1248.262 656.405 Q 1247.07 654.021 1247.07 649.423 Q 1247.07 644.824 1248.262 642.61 Q 1249.624 640.226 1253.712 640.226 L 1337.675 640.226 Q 1352.662 640.226 1358.794 636.479 Q 1365.095 632.562 1365.095 626.941 L 1365.095 618.426 Q 1365.095 612.976 1358.794 609.059 Q 1352.662 605.142 1337.675 605.142 L 1297.482 605.142 Z " fill="rgb(255,255,255)"/><path d=" M 1421.931 651.296 Q 1421.931 656.235 1419.206 657.768 Q 1416.481 659.3 1411.031 659.3 Q 1405.581 659.3 1402.856 657.768 Q 1400.301 656.236 1400.301 651.296 L 1400.301 570.909 Q 1400.301 565.97 1402.856 564.437 Q 1405.581 562.904 1411.031 562.904 Q 1416.481 562.904 1419.206 564.437 Q 1421.931 565.969 1421.931 570.909 L 1421.931 651.296 Z " fill="rgb(255,255,255)" vector-effect="non-scaling-stroke" stroke-width="0.75" stroke="rgb(255,255,255)" stroke-linejoin="miter" stroke-linecap="butt" stroke-miterlimit="4"/><path d=" M 1397.576 545.022 Q 1397.576 539.572 1400.642 537.017 Q 1403.878 534.463 1411.031 534.463 Q 1418.184 534.463 1421.25 537.017 Q 1424.486 539.572 1424.486 545.022 Q 1424.486 550.472 1421.25 553.027 Q 1418.184 555.581 1411.031 555.581 Q 1403.878 555.581 1400.642 553.027 Q 1397.576 550.472 1397.576 545.022 Z " fill="rgb(74,134,232)"/><path d=" M 1447.767 562.394 L 1447.767 542.467 Q 1447.767 537.528 1450.322 535.996 Q 1453.047 534.464 1458.497 534.464 Q 1463.947 534.464 1466.672 535.996 Q 1469.397 537.528 1469.397 542.467 L 1469.397 562.394 L 1505.332 562.394 Q 1509.25 562.394 1510.271 564.608 Q 1511.464 566.822 1511.464 571.079 Q 1511.464 575.337 1510.271 577.551 Q 1509.25 579.595 1505.332 579.595 L 1469.397 579.595 L 1469.397 651.296 Q 1469.397 656.235 1466.672 657.768 Q 1463.947 659.3 1458.497 659.3 Q 1453.047 659.3 1450.322 657.768 Q 1447.767 656.236 1447.767 651.296 L 1447.767 579.595 L 1438.06 579.595 Q 1434.143 579.595 1432.95 577.551 Q 1431.929 575.337 1431.929 571.079 Q 1431.929 566.822 1432.95 564.608 Q 1434.143 562.394 1438.06 562.394 L 1447.767 562.394 Z " fill="rgb(255,255,255)"/><path d=" M 1538.484 620.299 L 1538.484 628.985 Q 1538.484 634.095 1544.956 637.841 Q 1551.428 641.418 1565.734 641.418 L 1585.32 641.418 Q 1589.237 641.418 1590.259 643.632 Q 1591.451 645.675 1591.451 649.933 Q 1591.451 654.191 1590.259 656.405 Q 1589.237 658.619 1585.32 658.619 L 1565.053 658.619 Q 1516.855 658.619 1516.855 628.985 L 1516.855 592.028 Q 1516.855 562.394 1565.053 562.394 L 1604.395 562.394 Q 1629.941 562.394 1641.182 569.717 Q 1652.593 577.04 1652.593 592.028 L 1652.593 611.613 Q 1652.593 616.552 1650.719 618.426 Q 1648.846 620.299 1642.374 620.299 L 1538.484 620.299 Z  M 1538.484 603.438 L 1630.963 603.438 L 1630.963 592.028 Q 1630.963 586.067 1624.491 582.831 Q 1618.19 579.595 1603.713 579.595 L 1565.734 579.595 Q 1551.428 579.595 1544.956 583.172 Q 1538.484 586.748 1538.484 592.028 L 1538.484 603.438 Z " fill="rgb(255,255,255)"/></g></g></g></g></svg>