<?xml version="1.0" encoding="UTF-8" standalone="no"?><!-- Generator: Gravit.io --><svg xmlns="http://www.w3.org/2000/svg" xmlns:xlink="http://www.w3.org/1999/xlink" style="isolation:isolate" viewBox="0 0 3009.932 317" width="3009.932pt" height="317pt"><defs><clipPath id="_clipPath_oBxFQomw9SNy8uauIb4KUg1c3nbxSEMk"><rect width="3009.932" height="317"/></clipPath></defs><g clip-path="url(#_clipPath_oBxFQomw9SNy8uauIb4KUg1c3nbxSEMk)"><g><path d="M 7.978 0 L 91.742 0 C 96.145 0 99.72 3.575 99.72 7.978 L 99.72 91.742 C 99.72 96.145 96.145 99.72 91.742 99.72 L 7.978 99.72 C 3.575 99.72 0 96.145 0 91.742 L 0 7.978 C 0 3.575 3.575 0 7.978 0 Z" style="stroke:none;fill:#FFFFFF;stroke-miterlimit:10;"/><path d="M 116.618 0 L 200.382 0 C 204.785 0 208.36 3.575 208.36 7.978 L 208.36 91.742 C 208.36 96.145 204.785 99.72 200.382 99.72 L 116.618 99.72 C 112.215 99.72 108.64 96.145 108.64 91.742 L 108.64 7.978 C 108.64 3.575 112.215 0 116.618 0 Z" style="stroke:none;fill:#FFFFFF;stroke-miterlimit:10;"/><path d="M 7.978 108.64 L 91.742 108.64 C 96.145 108.64 99.72 112.215 99.72 116.618 L 99.72 200.382 C 99.72 204.785 96.145 208.36 91.742 208.36 L 7.978 208.36 C 3.575 208.36 0 204.785 0 200.382 L 0 116.618 C 0 112.215 3.575 108.64 7.978 108.64 Z" style="stroke:none;fill:#FFFFFF;stroke-miterlimit:10;"/><path d="M 116.618 108.64 L 200.382 108.64 C 204.785 108.64 208.36 112.215 208.36 116.618 L 208.36 200.382 C 208.36 204.785 204.785 208.36 200.382 208.36 L 116.618 208.36 C 112.215 208.36 108.64 204.785 108.64 200.382 L 108.64 116.618 C 108.64 112.215 112.215 108.64 116.618 108.64 Z" style="stroke:none;fill:#FFFFFF;stroke-miterlimit:10;"/><path d="M 225.258 108.64 L 309.022 108.64 C 313.425 108.64 317 112.215 317 116.618 L 317 200.382 C 317 204.785 313.425 208.36 309.022 208.36 L 225.258 208.36 C 220.855 208.36 217.28 204.785 217.28 200.382 L 217.28 116.618 C 217.28 112.215 220.855 108.64 225.258 108.64 Z" style="stroke:none;fill:#4A86E8;stroke-miterlimit:10;"/><path d="M 7.978 217.28 L 91.742 217.28 C 96.145 217.28 99.72 220.855 99.72 225.258 L 99.72 309.022 C 99.72 313.425 96.145 317 91.742 317 L 7.978 317 C 3.575 317 0 313.425 0 309.022 L 0 225.258 C 0 220.855 3.575 217.28 7.978 217.28 Z" style="stroke:none;fill:#FFFFFF;stroke-miterlimit:10;"/><path d="M 116.618 217.28 L 200.382 217.28 C 204.785 217.28 208.36 220.855 208.36 225.258 L 208.36 309.022 C 208.36 313.425 204.785 317 200.382 317 L 116.618 317 C 112.215 317 108.64 313.425 108.64 309.022 L 108.64 225.258 C 108.64 220.855 112.215 217.28 116.618 217.28 Z" style="stroke:none;fill:#FFFFFF;stroke-miterlimit:10;"/><path d="M 225.258 217.28 L 309.022 217.28 C 313.425 217.28 317 220.855 317 225.258 L 317 309.022 C 317 313.425 313.425 317 309.022 317 L 225.258 317 C 220.855 317 217.28 313.425 217.28 309.022 L 217.28 225.258 C 217.28 220.855 220.855 217.28 225.258 217.28 Z" style="stroke:none;fill:#FFFFFF;stroke-miterlimit:10;"/></g><g><g><mask id="_mask_GZ9sYpWC2hUXRRB4xJlgi9O97hTrdhL9" x="-200%" y="-200%" width="400%" height="400%"><rect x="-200%" y="-200%" width="400%" height="400%" style="fill:white;"/><path d=" M 537.642 184.233 L 537.642 234.832 Q 537.642 248.672 554.941 258.618 Q 572.24 268.565 610.297 268.565 L 817.019 268.565 Q 827.398 268.565 830.425 274.62 Q 833.885 280.242 833.885 291.919 Q 833.885 303.163 830.425 309.218 Q 827.398 315.272 817.019 315.272 L 608.567 315.272 Q 480.556 315.272 480.556 234.832 L 480.556 82.17 Q 480.556 1.73 608.567 1.73 L 673.006 1.73 Q 682.952 1.73 685.98 7.785 Q 689.44 13.407 689.44 25.083 Q 689.44 36.76 685.98 42.815 Q 682.953 48.437 673.006 48.437 L 610.297 48.437 Q 572.24 48.437 554.941 58.384 Q 537.642 67.898 537.642 82.17 L 537.642 137.526 L 818.316 137.526 Q 828.696 137.526 831.723 143.581 Q 835.183 149.203 835.183 160.88 Q 835.183 172.556 831.723 178.611 Q 828.696 184.233 818.316 184.233 L 537.642 184.233 Z " fill="black" stroke="none"/></mask><path d=" M 537.642 184.233 L 537.642 234.832 Q 537.642 248.672 554.941 258.618 Q 572.24 268.565 610.297 268.565 L 817.019 268.565 Q 827.398 268.565 830.425 274.62 Q 833.885 280.242 833.885 291.919 Q 833.885 303.163 830.425 309.218 Q 827.398 315.272 817.019 315.272 L 608.567 315.272 Q 480.556 315.272 480.556 234.832 L 480.556 82.17 Q 480.556 1.73 608.567 1.73 L 673.006 1.73 Q 682.952 1.73 685.98 7.785 Q 689.44 13.407 689.44 25.083 Q 689.44 36.76 685.98 42.815 Q 682.953 48.437 673.006 48.437 L 610.297 48.437 Q 572.24 48.437 554.941 58.384 Q 537.642 67.898 537.642 82.17 L 537.642 137.526 L 818.316 137.526 Q 828.696 137.526 831.723 143.581 Q 835.183 149.203 835.183 160.88 Q 835.183 172.556 831.723 178.611 Q 828.696 184.233 818.316 184.233 L 537.642 184.233 Z " fill="rgb(255,255,255)"/><path d=" M 537.642 184.233 L 537.642 234.832 Q 537.642 248.672 554.941 258.618 Q 572.24 268.565 610.297 268.565 L 817.019 268.565 Q 827.398 268.565 830.425 274.62 Q 833.885 280.242 833.885 291.919 Q 833.885 303.163 830.425 309.218 Q 827.398 315.272 817.019 315.272 L 608.567 315.272 Q 480.556 315.272 480.556 234.832 L 480.556 82.17 Q 480.556 1.73 608.567 1.73 L 673.006 1.73 Q 682.952 1.73 685.98 7.785 Q 689.44 13.407 689.44 25.083 Q 689.44 36.76 685.98 42.815 Q 682.953 48.437 673.006 48.437 L 610.297 48.437 Q 572.24 48.437 554.941 58.384 Q 537.642 67.898 537.642 82.17 L 537.642 137.526 L 818.316 137.526 Q 828.696 137.526 831.723 143.581 Q 835.183 149.203 835.183 160.88 Q 835.183 172.556 831.723 178.611 Q 828.696 184.233 818.316 184.233 L 537.642 184.233 Z " fill="rgb(255,255,255)" mask="url(#_mask_GZ9sYpWC2hUXRRB4xJlgi9O97hTrdhL9)" vector-effect="non-scaling-stroke" stroke-width="1.5" stroke="rgb(255,255,255)" stroke-linejoin="miter" stroke-linecap="butt" stroke-miterlimit="4"/><mask id="_mask_GqwFvhEIeGBDlAxDyUxfnOWCKehTzHqS" x="-200%" y="-200%" width="400%" height="400%"><rect x="-200%" y="-200%" width="400%" height="400%" style="fill:white;"/><path d=" M 925.387 296.676 Q 925.387 309.218 918.467 313.11 Q 911.548 317 897.709 317 Q 883.87 317 876.95 313.11 Q 870.463 309.219 870.463 296.676 L 870.463 20.326 Q 870.463 7.785 876.95 3.892 Q 883.87 0.002 897.709 0.002 Q 911.548 0.002 918.467 3.892 Q 925.387 7.782 925.387 20.326 L 925.387 296.676 Z " fill="black" stroke="none"/></mask><path d=" M 925.387 296.676 Q 925.387 309.218 918.467 313.11 Q 911.548 317 897.709 317 Q 883.87 317 876.95 313.11 Q 870.463 309.219 870.463 296.676 L 870.463 20.326 Q 870.463 7.785 876.95 3.892 Q 883.87 0.002 897.709 0.002 Q 911.548 0.002 918.467 3.892 Q 925.387 7.782 925.387 20.326 L 925.387 296.676 Z " fill="rgb(255,255,255)"/><path d=" M 925.387 296.676 Q 925.387 309.218 918.467 313.11 Q 911.548 317 897.709 317 Q 883.87 317 876.95 313.11 Q 870.463 309.219 870.463 296.676 L 870.463 20.326 Q 870.463 7.785 876.95 3.892 Q 883.87 0.002 897.709 0.002 Q 911.548 0.002 918.467 3.892 Q 925.387 7.782 925.387 20.326 L 925.387 296.676 Z " fill="rgb(255,255,255)" mask="url(#_mask_GqwFvhEIeGBDlAxDyUxfnOWCKehTzHqS)" vector-effect="non-scaling-stroke" stroke-width="1.5" stroke="rgb(255,255,255)" stroke-linejoin="miter" stroke-linecap="butt" stroke-miterlimit="4"/><path d=" M 1081.813 315.272 Q 959.424 315.272 959.424 240.022 L 959.424 217.1 Q 959.424 141.851 1081.813 141.851 L 1266.911 141.851 L 1266.911 141.418 Q 1266.911 128.876 1250.477 121.956 Q 1234.476 114.604 1197.716 114.604 L 1157.063 114.604 Q 1147.116 114.604 1144.089 109.414 Q 1141.062 103.793 1141.062 92.981 Q 1141.062 81.737 1144.089 76.546 Q 1147.116 70.925 1157.063 70.925 L 1199.446 70.925 Q 1321.835 70.925 1321.835 146.175 L 1321.835 240.021 Q 1321.835 315.271 1199.446 315.271 L 1081.813 315.272 Z  M 1197.716 271.593 Q 1234.043 271.593 1250.477 262.51 Q 1266.911 252.996 1266.911 240.022 L 1266.911 183.8 L 1083.543 183.8 Q 1047.216 183.8 1030.782 192.883 Q 1014.348 201.964 1014.348 215.371 L 1014.348 240.022 Q 1014.348 252.996 1030.782 262.51 Q 1047.216 271.593 1083.543 271.593 L 1197.716 271.593 Z " fill="rgb(255,255,255)" vector-effect="non-scaling-stroke" stroke-width="0.75" stroke="rgb(255,255,255)" stroke-linejoin="miter" stroke-linecap="butt" stroke-miterlimit="4"/><mask id="_mask_WrMDK2N2H1hpaEEnCdp8XSXweio6R8O3" x="-200%" y="-200%" width="400%" height="400%"><rect x="-200%" y="-200%" width="400%" height="400%" style="fill:white;"/><path d=" M 1353.061 135.796 Q 1353.061 105.523 1379.009 88.224 Q 1404.958 70.925 1455.989 70.925 L 1515.238 70.925 Q 1525.185 70.925 1528.212 76.548 Q 1531.239 81.737 1531.239 92.981 Q 1531.239 103.793 1528.212 109.415 Q 1525.185 114.605 1515.238 114.605 L 1455.557 114.605 Q 1430.906 114.605 1419.229 120.66 Q 1407.553 126.282 1407.553 136.229 L 1407.553 147.473 Q 1407.553 157.42 1419.662 163.474 Q 1431.771 169.529 1457.719 169.529 L 1553.296 169.529 Q 1613.842 169.529 1640.655 186.828 Q 1667.468 204.127 1667.468 235.265 L 1667.468 249.104 Q 1667.468 264.673 1660.549 277.214 Q 1653.629 289.324 1638.925 297.973 Q 1624.221 306.19 1600.867 310.947 Q 1577.514 315.272 1545.079 315.272 L 1369.927 315.272 Q 1359.981 315.272 1356.953 310.082 Q 1353.926 304.46 1353.926 293.216 Q 1353.926 282.404 1356.953 277.214 Q 1359.981 271.593 1369.927 271.593 L 1553.296 271.593 Q 1570.594 271.593 1581.839 270.293 Q 1593.515 268.564 1600.003 265.968 Q 1606.922 262.941 1609.517 259.048 Q 1612.112 255.158 1612.112 249.967 L 1612.112 234.398 Q 1612.112 229.208 1609.517 225.316 Q 1606.922 221.422 1600.435 218.396 Q 1593.948 215.368 1582.704 214.071 Q 1571.892 212.343 1555.026 212.343 L 1458.152 212.343 Q 1405.823 212.343 1379.442 195.476 Q 1353.061 178.178 1353.061 148.337 L 1353.061 135.796 Z " fill="black" stroke="none"/></mask><path d=" M 1353.061 135.796 Q 1353.061 105.523 1379.009 88.224 Q 1404.958 70.925 1455.989 70.925 L 1515.238 70.925 Q 1525.185 70.925 1528.212 76.548 Q 1531.239 81.737 1531.239 92.981 Q 1531.239 103.793 1528.212 109.415 Q 1525.185 114.605 1515.238 114.605 L 1455.557 114.605 Q 1430.906 114.605 1419.229 120.66 Q 1407.553 126.282 1407.553 136.229 L 1407.553 147.473 Q 1407.553 157.42 1419.662 163.474 Q 1431.771 169.529 1457.719 169.529 L 1553.296 169.529 Q 1613.842 169.529 1640.655 186.828 Q 1667.468 204.127 1667.468 235.265 L 1667.468 249.104 Q 1667.468 264.673 1660.549 277.214 Q 1653.629 289.324 1638.925 297.973 Q 1624.221 306.19 1600.867 310.947 Q 1577.514 315.272 1545.079 315.272 L 1369.927 315.272 Q 1359.981 315.272 1356.953 310.082 Q 1353.926 304.46 1353.926 293.216 Q 1353.926 282.404 1356.953 277.214 Q 1359.981 271.593 1369.927 271.593 L 1553.296 271.593 Q 1570.594 271.593 1581.839 270.293 Q 1593.515 268.564 1600.003 265.968 Q 1606.922 262.941 1609.517 259.048 Q 1612.112 255.158 1612.112 249.967 L 1612.112 234.398 Q 1612.112 229.208 1609.517 225.316 Q 1606.922 221.422 1600.435 218.396 Q 1593.948 215.368 1582.704 214.071 Q 1571.892 212.343 1555.026 212.343 L 1458.152 212.343 Q 1405.823 212.343 1379.442 195.476 Q 1353.061 178.178 1353.061 148.337 L 1353.061 135.796 Z " fill="rgb(255,255,255)"/><path d=" M 1353.061 135.796 Q 1353.061 105.523 1379.009 88.224 Q 1404.958 70.925 1455.989 70.925 L 1515.238 70.925 Q 1525.185 70.925 1528.212 76.548 Q 1531.239 81.737 1531.239 92.981 Q 1531.239 103.793 1528.212 109.415 Q 1525.185 114.605 1515.238 114.605 L 1455.557 114.605 Q 1430.906 114.605 1419.229 120.66 Q 1407.553 126.282 1407.553 136.229 L 1407.553 147.473 Q 1407.553 157.42 1419.662 163.474 Q 1431.771 169.529 1457.719 169.529 L 1553.296 169.529 Q 1613.842 169.529 1640.655 186.828 Q 1667.468 204.127 1667.468 235.265 L 1667.468 249.104 Q 1667.468 264.673 1660.549 277.214 Q 1653.629 289.324 1638.925 297.973 Q 1624.221 306.19 1600.867 310.947 Q 1577.514 315.272 1545.079 315.272 L 1369.927 315.272 Q 1359.981 315.272 1356.953 310.082 Q 1353.926 304.46 1353.926 293.216 Q 1353.926 282.404 1356.953 277.214 Q 1359.981 271.593 1369.927 271.593 L 1553.296 271.593 Q 1570.594 271.593 1581.839 270.293 Q 1593.515 268.564 1600.003 265.968 Q 1606.922 262.941 1609.517 259.048 Q 1612.112 255.158 1612.112 249.967 L 1612.112 234.398 Q 1612.112 229.208 1609.517 225.316 Q 1606.922 221.422 1600.435 218.396 Q 1593.948 215.368 1582.704 214.071 Q 1571.892 212.343 1555.026 212.343 L 1458.152 212.343 Q 1405.823 212.343 1379.442 195.476 Q 1353.061 178.178 1353.061 148.337 L 1353.061 135.796 Z " fill="rgb(255,255,255)" mask="url(#_mask_WrMDK2N2H1hpaEEnCdp8XSXweio6R8O3)" vector-effect="non-scaling-stroke" stroke-width="1.5" stroke="rgb(255,255,255)" stroke-linejoin="miter" stroke-linecap="butt" stroke-miterlimit="4"/><mask id="_mask_4KacUKvOjCQeMKM0pAYxM5OovBh9QbI6" x="-200%" y="-200%" width="400%" height="400%"><rect x="-200%" y="-200%" width="400%" height="400%" style="fill:white;"/><path d=" M 1703.052 70.925 L 1703.052 20.326 Q 1703.052 7.785 1709.54 3.892 Q 1716.459 0.002 1730.298 0.002 Q 1744.137 0.002 1751.057 3.892 Q 1757.977 7.782 1757.977 20.326 L 1757.977 70.925 L 1849.228 70.925 Q 1859.175 70.925 1861.77 76.548 Q 1864.797 82.17 1864.797 92.981 Q 1864.797 103.793 1861.77 109.415 Q 1859.175 114.605 1849.228 114.605 L 1757.977 114.605 L 1757.977 296.676 Q 1757.977 309.218 1751.057 313.11 Q 1744.137 317 1730.298 317 Q 1716.459 317 1709.54 313.11 Q 1703.052 309.219 1703.052 296.676 L 1703.052 114.605 L 1678.402 114.605 Q 1668.455 114.605 1665.427 109.415 Q 1662.833 103.793 1662.833 92.981 Q 1662.833 82.17 1665.427 76.548 Q 1668.455 70.925 1678.402 70.925 L 1703.052 70.925 Z " fill="black" stroke="none"/></mask><path d=" M 1703.052 70.925 L 1703.052 20.326 Q 1703.052 7.785 1709.54 3.892 Q 1716.459 0.002 1730.298 0.002 Q 1744.137 0.002 1751.057 3.892 Q 1757.977 7.782 1757.977 20.326 L 1757.977 70.925 L 1849.228 70.925 Q 1859.175 70.925 1861.77 76.548 Q 1864.797 82.17 1864.797 92.981 Q 1864.797 103.793 1861.77 109.415 Q 1859.175 114.605 1849.228 114.605 L 1757.977 114.605 L 1757.977 296.676 Q 1757.977 309.218 1751.057 313.11 Q 1744.137 317 1730.298 317 Q 1716.459 317 1709.54 313.11 Q 1703.052 309.219 1703.052 296.676 L 1703.052 114.605 L 1678.402 114.605 Q 1668.455 114.605 1665.427 109.415 Q 1662.833 103.793 1662.833 92.981 Q 1662.833 82.17 1665.427 76.548 Q 1668.455 70.925 1678.402 70.925 L 1703.052 70.925 Z " fill="rgb(255,255,255)"/><path d=" M 1703.052 70.925 L 1703.052 20.326 Q 1703.052 7.785 1709.54 3.892 Q 1716.459 0.002 1730.298 0.002 Q 1744.137 0.002 1751.057 3.892 Q 1757.977 7.782 1757.977 20.326 L 1757.977 70.925 L 1849.228 70.925 Q 1859.175 70.925 1861.77 76.548 Q 1864.797 82.17 1864.797 92.981 Q 1864.797 103.793 1861.77 109.415 Q 1859.175 114.605 1849.228 114.605 L 1757.977 114.605 L 1757.977 296.676 Q 1757.977 309.218 1751.057 313.11 Q 1744.137 317 1730.298 317 Q 1716.459 317 1709.54 313.11 Q 1703.052 309.219 1703.052 296.676 L 1703.052 114.605 L 1678.402 114.605 Q 1668.455 114.605 1665.427 109.415 Q 1662.833 103.793 1662.833 92.981 Q 1662.833 82.17 1665.427 76.548 Q 1668.455 70.925 1678.402 70.925 L 1703.052 70.925 Z " fill="rgb(255,255,255)" mask="url(#_mask_4KacUKvOjCQeMKM0pAYxM5OovBh9QbI6)" vector-effect="non-scaling-stroke" stroke-width="1.5" stroke="rgb(255,255,255)" stroke-linejoin="miter" stroke-linecap="butt" stroke-miterlimit="4"/><path d=" M 1944.906 296.676 Q 1944.906 309.218 1937.986 313.11 Q 1931.067 317 1917.228 317 Q 1903.389 317 1896.469 313.11 Q 1889.982 309.219 1889.982 296.676 L 1889.982 92.549 Q 1889.982 80.008 1896.469 76.115 Q 1903.389 72.221 1917.228 72.221 Q 1931.067 72.221 1937.986 76.115 Q 1944.906 80.005 1944.906 92.549 L 1944.906 296.676 Z " fill="rgb(255,255,255)" vector-effect="non-scaling-stroke" stroke-width="0.75" stroke="rgb(255,255,255)" stroke-linejoin="miter" stroke-linecap="butt" stroke-miterlimit="4"/><path d=" M 1883.062 26.813 Q 1883.062 12.974 1890.847 6.487 Q 1899.064 0 1917.228 0 Q 1935.392 0 1943.176 6.487 Q 1951.393 12.974 1951.393 26.813 Q 1951.393 40.652 1943.176 47.139 Q 1935.392 53.627 1917.228 53.627 Q 1899.064 53.627 1890.847 47.139 Q 1883.062 40.652 1883.062 26.813 Z " fill="rgb(74,134,232)"/><mask id="_mask_8e0dfDcFdoN2504coit4D0oO5N6GxfVW" x="-200%" y="-200%" width="400%" height="400%"><rect x="-200%" y="-200%" width="400%" height="400%" style="fill:white;"/><path d=" M 2107.819 179.476 Q 1979.808 179.476 1979.808 99.036 L 1979.808 82.17 Q 1979.808 1.73 2107.819 1.73 L 2151.066 1.73 Q 2161.446 1.73 2164.473 7.785 Q 2167.933 13.407 2167.933 25.083 Q 2167.933 36.76 2164.473 42.815 Q 2161.446 48.437 2151.066 48.437 L 2106.522 48.437 Q 2068.464 48.437 2052.463 58.384 Q 2036.894 67.898 2036.894 82.17 L 2036.894 99.036 Q 2036.894 112.875 2052.463 122.822 Q 2068.464 132.769 2106.522 132.769 L 2208.585 132.769 Q 2336.597 132.769 2336.597 213.208 L 2336.597 234.832 Q 2336.597 315.272 2208.585 315.272 L 1996.674 315.272 Q 1986.295 315.272 1982.835 309.65 Q 1979.808 303.595 1979.808 291.919 Q 1979.808 280.242 1982.835 274.62 Q 1986.295 268.565 1996.674 268.565 L 2209.883 268.565 Q 2247.94 268.565 2263.509 259.05 Q 2279.511 249.104 2279.511 234.832 L 2279.511 213.208 Q 2279.511 199.37 2263.509 189.423 Q 2247.94 179.476 2209.883 179.476 L 2107.819 179.476 Z " fill="black" stroke="none"/></mask><path d=" M 2107.819 179.476 Q 1979.808 179.476 1979.808 99.036 L 1979.808 82.17 Q 1979.808 1.73 2107.819 1.73 L 2151.066 1.73 Q 2161.446 1.73 2164.473 7.785 Q 2167.933 13.407 2167.933 25.083 Q 2167.933 36.76 2164.473 42.815 Q 2161.446 48.437 2151.066 48.437 L 2106.522 48.437 Q 2068.464 48.437 2052.463 58.384 Q 2036.894 67.898 2036.894 82.17 L 2036.894 99.036 Q 2036.894 112.875 2052.463 122.822 Q 2068.464 132.769 2106.522 132.769 L 2208.585 132.769 Q 2336.597 132.769 2336.597 213.208 L 2336.597 234.832 Q 2336.597 315.272 2208.585 315.272 L 1996.674 315.272 Q 1986.295 315.272 1982.835 309.65 Q 1979.808 303.595 1979.808 291.919 Q 1979.808 280.242 1982.835 274.62 Q 1986.295 268.565 1996.674 268.565 L 2209.883 268.565 Q 2247.94 268.565 2263.509 259.05 Q 2279.511 249.104 2279.511 234.832 L 2279.511 213.208 Q 2279.511 199.37 2263.509 189.423 Q 2247.94 179.476 2209.883 179.476 L 2107.819 179.476 Z " fill="rgb(255,255,255)"/><path d=" M 2107.819 179.476 Q 1979.808 179.476 1979.808 99.036 L 1979.808 82.17 Q 1979.808 1.73 2107.819 1.73 L 2151.066 1.73 Q 2161.446 1.73 2164.473 7.785 Q 2167.933 13.407 2167.933 25.083 Q 2167.933 36.76 2164.473 42.815 Q 2161.446 48.437 2151.066 48.437 L 2106.522 48.437 Q 2068.464 48.437 2052.463 58.384 Q 2036.894 67.898 2036.894 82.17 L 2036.894 99.036 Q 2036.894 112.875 2052.463 122.822 Q 2068.464 132.769 2106.522 132.769 L 2208.585 132.769 Q 2336.597 132.769 2336.597 213.208 L 2336.597 234.832 Q 2336.597 315.272 2208.585 315.272 L 1996.674 315.272 Q 1986.295 315.272 1982.835 309.65 Q 1979.808 303.595 1979.808 291.919 Q 1979.808 280.242 1982.835 274.62 Q 1986.295 268.565 1996.674 268.565 L 2209.883 268.565 Q 2247.94 268.565 2263.509 259.05 Q 2279.511 249.104 2279.511 234.832 L 2279.511 213.208 Q 2279.511 199.37 2263.509 189.423 Q 2247.94 179.476 2209.883 179.476 L 2107.819 179.476 Z " fill="rgb(255,255,255)" mask="url(#_mask_8e0dfDcFdoN2504coit4D0oO5N6GxfVW)" vector-effect="non-scaling-stroke" stroke-width="1.5" stroke="rgb(255,255,255)" stroke-linejoin="miter" stroke-linecap="butt" stroke-miterlimit="4"/><path d=" M 2423.835 296.676 Q 2423.835 309.218 2416.915 313.11 Q 2409.996 317 2396.157 317 Q 2382.318 317 2375.398 313.11 Q 2368.911 309.219 2368.911 296.676 L 2368.911 92.549 Q 2368.911 80.008 2375.398 76.115 Q 2382.318 72.221 2396.157 72.221 Q 2409.996 72.221 2416.915 76.115 Q 2423.835 80.005 2423.835 92.549 L 2423.835 296.676 Z " fill="rgb(255,255,255)" vector-effect="non-scaling-stroke" stroke-width="0.75" stroke="rgb(255,255,255)" stroke-linejoin="miter" stroke-linecap="butt" stroke-miterlimit="4"/><path d=" M 2361.991 26.813 Q 2361.991 12.974 2369.776 6.487 Q 2377.993 0 2396.157 0 Q 2414.32 0 2422.105 6.487 Q 2430.322 12.974 2430.322 26.813 Q 2430.322 40.652 2422.105 47.139 Q 2414.32 53.627 2396.157 53.627 Q 2377.993 53.627 2369.776 47.139 Q 2361.991 40.652 2361.991 26.813 Z " fill="rgb(74,134,232)"/><mask id="_mask_mcQBcCfFX2vqJ3DGL1ef9maJvH2qDPlE" x="-200%" y="-200%" width="400%" height="400%"><rect x="-200%" y="-200%" width="400%" height="400%" style="fill:white;"/><path d=" M 2489.442 70.925 L 2489.442 20.326 Q 2489.442 7.785 2495.929 3.892 Q 2502.849 0.002 2516.688 0.002 Q 2530.527 0.002 2537.446 3.892 Q 2544.366 7.782 2544.366 20.326 L 2544.366 70.925 L 2635.618 70.925 Q 2645.565 70.925 2648.159 76.548 Q 2651.187 82.17 2651.187 92.981 Q 2651.187 103.793 2648.159 109.415 Q 2645.565 114.605 2635.618 114.605 L 2544.366 114.605 L 2544.366 296.676 Q 2544.366 309.218 2537.446 313.11 Q 2530.527 317 2516.688 317 Q 2502.849 317 2495.929 313.11 Q 2489.442 309.219 2489.442 296.676 L 2489.442 114.605 L 2464.791 114.605 Q 2454.844 114.605 2451.817 109.415 Q 2449.222 103.793 2449.222 92.981 Q 2449.222 82.17 2451.817 76.548 Q 2454.844 70.925 2464.791 70.925 L 2489.442 70.925 Z " fill="black" stroke="none"/></mask><path d=" M 2489.442 70.925 L 2489.442 20.326 Q 2489.442 7.785 2495.929 3.892 Q 2502.849 0.002 2516.688 0.002 Q 2530.527 0.002 2537.446 3.892 Q 2544.366 7.782 2544.366 20.326 L 2544.366 70.925 L 2635.618 70.925 Q 2645.565 70.925 2648.159 76.548 Q 2651.187 82.17 2651.187 92.981 Q 2651.187 103.793 2648.159 109.415 Q 2645.565 114.605 2635.618 114.605 L 2544.366 114.605 L 2544.366 296.676 Q 2544.366 309.218 2537.446 313.11 Q 2530.527 317 2516.688 317 Q 2502.849 317 2495.929 313.11 Q 2489.442 309.219 2489.442 296.676 L 2489.442 114.605 L 2464.791 114.605 Q 2454.844 114.605 2451.817 109.415 Q 2449.222 103.793 2449.222 92.981 Q 2449.222 82.17 2451.817 76.548 Q 2454.844 70.925 2464.791 70.925 L 2489.442 70.925 Z " fill="rgb(255,255,255)"/><path d=" M 2489.442 70.925 L 2489.442 20.326 Q 2489.442 7.785 2495.929 3.892 Q 2502.849 0.002 2516.688 0.002 Q 2530.527 0.002 2537.446 3.892 Q 2544.366 7.782 2544.366 20.326 L 2544.366 70.925 L 2635.618 70.925 Q 2645.565 70.925 2648.159 76.548 Q 2651.187 82.17 2651.187 92.981 Q 2651.187 103.793 2648.159 109.415 Q 2645.565 114.605 2635.618 114.605 L 2544.366 114.605 L 2544.366 296.676 Q 2544.366 309.218 2537.446 313.11 Q 2530.527 317 2516.688 317 Q 2502.849 317 2495.929 313.11 Q 2489.442 309.219 2489.442 296.676 L 2489.442 114.605 L 2464.791 114.605 Q 2454.844 114.605 2451.817 109.415 Q 2449.222 103.793 2449.222 92.981 Q 2449.222 82.17 2451.817 76.548 Q 2454.844 70.925 2464.791 70.925 L 2489.442 70.925 Z " fill="rgb(255,255,255)" mask="url(#_mask_mcQBcCfFX2vqJ3DGL1ef9maJvH2qDPlE)" vector-effect="non-scaling-stroke" stroke-width="1.5" stroke="rgb(255,255,255)" stroke-linejoin="miter" stroke-linecap="butt" stroke-miterlimit="4"/><path d=" M 2719.801 217.966 L 2719.801 240.022 Q 2719.801 252.996 2736.235 262.51 Q 2752.669 271.593 2788.997 271.593 L 2838.731 271.593 Q 2848.678 271.593 2851.273 277.214 Q 2854.3 282.404 2854.3 293.216 Q 2854.3 304.028 2851.273 309.65 Q 2848.678 315.272 2838.731 315.272 L 2787.267 315.272 Q 2664.877 315.272 2664.877 240.022 L 2664.877 146.175 Q 2664.877 70.925 2787.267 70.925 L 2887.168 70.925 Q 2952.038 70.925 2980.582 89.521 Q 3009.557 108.118 3009.557 146.175 L 3009.557 195.91 Q 3009.557 208.452 3004.8 213.208 Q 3000.043 217.966 2983.609 217.966 L 2719.801 217.966 Z  M 2719.801 175.151 L 2954.634 175.151 L 2954.634 146.175 Q 2954.634 131.039 2938.199 122.822 Q 2922.198 114.605 2885.438 114.605 L 2788.997 114.605 Q 2752.669 114.605 2736.235 123.687 Q 2719.801 132.769 2719.801 146.175 L 2719.801 175.151 Z " fill="rgb(255,255,255)" vector-effect="non-scaling-stroke" stroke-width="0.75" stroke="rgb(255,255,255)" stroke-linejoin="miter" stroke-linecap="butt" stroke-miterlimit="4"/></g></g></g></svg>