<?xml version="1.0" encoding="UTF-8" standalone="no"?><!-- Generator: Gravit.io --><svg xmlns="http://www.w3.org/2000/svg" xmlns:xlink="http://www.w3.org/1999/xlink" style="isolation:isolate" viewBox="0 0 32 32" width="32pt" height="32pt"><defs><clipPath id="_clipPath_uGmm3KGuWDZFtYM3IRE2Gzhul1xsRE0c"><rect width="32" height="32"/></clipPath></defs><g clip-path="url(#_clipPath_uGmm3KGuWDZFtYM3IRE2Gzhul1xsRE0c)"><g><g><path d="M 0.806 0 L 9.264 0 C 9.709 0 10.07 0.361 10.07 0.806 L 10.07 9.264 C 10.07 9.709 9.709 10.07 9.264 10.07 L 0.806 10.07 C 0.361 10.07 0 9.709 0 9.264 L 0 0.806 C 0 0.361 0.361 0 0.806 0 Z" style="stroke:none;fill:#FFFFFF;stroke-miterlimit:10;"/><path d="M 11.775 0 L 20.225 0 C 20.669 0 21.03 0.361 21.03 0.806 L 21.03 9.264 C 21.03 9.709 20.669 10.07 20.225 10.07 L 11.775 10.07 C 11.331 10.07 10.97 9.709 10.97 9.264 L 10.97 0.806 C 10.97 0.361 11.331 0 11.775 0 Z" style="stroke:none;fill:#FFFFFF;stroke-miterlimit:10;"/><path d="M 0.806 10.97 L 9.264 10.97 C 9.709 10.97 10.07 11.331 10.07 11.775 L 10.07 20.225 C 10.07 20.669 9.709 21.03 9.264 21.03 L 0.806 21.03 C 0.361 21.03 0 20.669 0 20.225 L 0 11.775 C 0 11.331 0.361 10.97 0.806 10.97 Z" style="stroke:none;fill:#FFFFFF;stroke-miterlimit:10;"/><path d="M 11.775 10.97 L 20.225 10.97 C 20.669 10.97 21.03 11.331 21.03 11.775 L 21.03 20.225 C 21.03 20.669 20.669 21.03 20.225 21.03 L 11.775 21.03 C 11.331 21.03 10.97 20.669 10.97 20.225 L 10.97 11.775 C 10.97 11.331 11.331 10.97 11.775 10.97 Z" style="stroke:none;fill:#FFFFFF;stroke-miterlimit:10;"/><path d="M 0.806 21.93 L 9.264 21.93 C 9.709 21.93 10.07 22.291 10.07 22.736 L 10.07 31.194 C 10.07 31.639 9.709 32 9.264 32 L 0.806 32 C 0.361 32 0 31.639 0 31.194 L 0 22.736 C 0 22.291 0.361 21.93 0.806 21.93 Z" style="stroke:none;fill:#FFFFFF;stroke-miterlimit:10;"/><path d="M 11.775 21.93 L 20.225 21.93 C 20.669 21.93 21.03 22.291 21.03 22.736 L 21.03 31.194 C 21.03 31.639 20.669 32 20.225 32 L 11.775 32 C 11.331 32 10.97 31.639 10.97 31.194 L 10.97 22.736 C 10.97 22.291 11.331 21.93 11.775 21.93 Z" style="stroke:none;fill:#FFFFFF;stroke-miterlimit:10;"/><path d="M 22.736 21.93 L 31.194 21.93 C 31.639 21.93 32 22.291 32 22.736 L 32 31.194 C 32 31.639 31.639 32 31.194 32 L 22.736 32 C 22.291 32 21.93 31.639 21.93 31.194 L 21.93 22.736 C 21.93 22.291 22.291 21.93 22.736 21.93 Z" style="stroke:none;fill:#FFFFFF;stroke-miterlimit:10;"/><path d="M 22.736 10.97 L 31.194 10.97 C 31.639 10.97 32 11.331 32 11.775 L 32 20.225 C 32 20.669 31.639 21.03 31.194 21.03 L 22.736 21.03 C 22.291 21.03 21.93 20.669 21.93 20.225 L 21.93 11.775 C 21.93 11.331 22.291 10.97 22.736 10.97 Z" style="stroke:none;fill:#4A86E8;stroke-miterlimit:10;"/></g></g></g></svg>