<?xml version="1.0" encoding="UTF-8" standalone="no"?><!-- Generator: Gravit.io --><svg xmlns="http://www.w3.org/2000/svg" xmlns:xlink="http://www.w3.org/1999/xlink" style="isolation:isolate" viewBox="0 0 256 256" width="256pt" height="256pt"><defs><clipPath id="_clipPath_y3DAdsTzkJrPKZcRdCYDpBSUhGeZbAbc"><rect width="256" height="256"/></clipPath></defs><g clip-path="url(#_clipPath_y3DAdsTzkJrPKZcRdCYDpBSUhGeZbAbc)"><g><path d="M 6.442 0 L 74.088 0 C 77.643 0 80.53 2.887 80.53 6.442 L 80.53 74.088 C 80.53 77.643 77.643 80.53 74.088 80.53 L 6.442 80.53 C 2.887 80.53 0 77.643 0 74.088 L 0 6.442 C 0 2.887 2.887 0 6.442 0 Z" style="stroke:none;fill:#FFFFFF;stroke-miterlimit:10;"/><path d="M 94.182 0 L 161.818 0 C 165.374 0 168.26 2.887 168.26 6.442 L 168.26 74.088 C 168.26 77.643 165.374 80.53 161.818 80.53 L 94.182 80.53 C 90.626 80.53 87.74 77.643 87.74 74.088 L 87.74 6.442 C 87.74 2.887 90.626 0 94.182 0 Z" style="stroke:none;fill:#FFFFFF;stroke-miterlimit:10;"/><path d="M 6.442 87.74 L 74.088 87.74 C 77.643 87.74 80.53 90.626 80.53 94.182 L 80.53 161.818 C 80.53 165.374 77.643 168.26 74.088 168.26 L 6.442 168.26 C 2.887 168.26 0 165.374 0 161.818 L 0 94.182 C 0 90.626 2.887 87.74 6.442 87.74 Z" style="stroke:none;fill:#FFFFFF;stroke-miterlimit:10;"/><path d="M 94.182 87.74 L 161.818 87.74 C 165.374 87.74 168.26 90.626 168.26 94.182 L 168.26 161.818 C 168.26 165.374 165.374 168.26 161.818 168.26 L 94.182 168.26 C 90.626 168.26 87.74 165.374 87.74 161.818 L 87.74 94.182 C 87.74 90.626 90.626 87.74 94.182 87.74 Z" style="stroke:none;fill:#FFFFFF;stroke-miterlimit:10;"/><path d="M 6.442 175.47 L 74.088 175.47 C 77.643 175.47 80.53 178.357 80.53 181.912 L 80.53 249.558 C 80.53 253.113 77.643 256 74.088 256 L 6.442 256 C 2.887 256 0 253.113 0 249.558 L 0 181.912 C 0 178.357 2.887 175.47 6.442 175.47 Z" style="stroke:none;fill:#FFFFFF;stroke-miterlimit:10;"/><path d="M 94.182 175.47 L 161.818 175.47 C 165.374 175.47 168.26 178.357 168.26 181.912 L 168.26 249.558 C 168.26 253.113 165.374 256 161.818 256 L 94.182 256 C 90.626 256 87.74 253.113 87.74 249.558 L 87.74 181.912 C 87.74 178.357 90.626 175.47 94.182 175.47 Z" style="stroke:none;fill:#FFFFFF;stroke-miterlimit:10;"/><path d="M 181.912 175.47 L 249.558 175.47 C 253.113 175.47 256 178.357 256 181.912 L 256 249.558 C 256 253.113 253.113 256 249.558 256 L 181.912 256 C 178.357 256 175.47 253.113 175.47 249.558 L 175.47 181.912 C 175.47 178.357 178.357 175.47 181.912 175.47 Z" style="stroke:none;fill:#FFFFFF;stroke-miterlimit:10;"/><path d="M 181.912 87.74 L 249.558 87.74 C 253.113 87.74 256 90.626 256 94.182 L 256 161.818 C 256 165.374 253.113 168.26 249.558 168.26 L 181.912 168.26 C 178.357 168.26 175.47 165.374 175.47 161.818 L 175.47 94.182 C 175.47 90.626 178.357 87.74 181.912 87.74 Z" style="stroke:none;fill:#4A86E8;stroke-miterlimit:10;"/></g></g></svg>