<?xml version="1.0" encoding="UTF-8" standalone="no"?><!-- Generator: Gravit.io --><svg xmlns="http://www.w3.org/2000/svg" xmlns:xlink="http://www.w3.org/1999/xlink" style="isolation:isolate" viewBox="0 0 128 128" width="128pt" height="128pt"><defs><clipPath id="_clipPath_KKZ5X0uyUJKtTDbPyyoMEQHH8kZ6J7xe"><rect width="128" height="128"/></clipPath></defs><g clip-path="url(#_clipPath_KKZ5X0uyUJKtTDbPyyoMEQHH8kZ6J7xe)"><g><path d="M 3.221 0 L 37.039 0 C 38.817 0 40.26 1.443 40.26 3.221 L 40.26 37.039 C 40.26 38.817 38.817 40.26 37.039 40.26 L 3.221 40.26 C 1.443 40.26 0 38.817 0 37.039 L 0 3.221 C 0 1.443 1.443 0 3.221 0 Z" style="stroke:none;fill:#3D5A80;stroke-miterlimit:10;"/><path d="M 47.091 0 L 80.909 0 C 82.687 0 84.13 1.443 84.13 3.221 L 84.13 37.039 C 84.13 38.817 82.687 40.26 80.909 40.26 L 47.091 40.26 C 45.313 40.26 43.87 38.817 43.87 37.039 L 43.87 3.221 C 43.87 1.443 45.313 0 47.091 0 Z" style="stroke:none;fill:#3D5A80;stroke-miterlimit:10;"/><path d="M 3.221 43.87 L 37.039 43.87 C 38.817 43.87 40.26 45.313 40.26 47.091 L 40.26 80.909 C 40.26 82.687 38.817 84.13 37.039 84.13 L 3.221 84.13 C 1.443 84.13 0 82.687 0 80.909 L 0 47.091 C 0 45.313 1.443 43.87 3.221 43.87 Z" style="stroke:none;fill:#3D5A80;stroke-miterlimit:10;"/><path d="M 47.091 43.87 L 80.909 43.87 C 82.687 43.87 84.13 45.313 84.13 47.091 L 84.13 80.909 C 84.13 82.687 82.687 84.13 80.909 84.13 L 47.091 84.13 C 45.313 84.13 43.87 82.687 43.87 80.909 L 43.87 47.091 C 43.87 45.313 45.313 43.87 47.091 43.87 Z" style="stroke:none;fill:#3D5A80;stroke-miterlimit:10;"/><path d="M 3.221 87.74 L 37.039 87.74 C 38.817 87.74 40.26 89.183 40.26 90.961 L 40.26 124.779 C 40.26 126.557 38.817 128 37.039 128 L 3.221 128 C 1.443 128 0 126.557 0 124.779 L 0 90.961 C 0 89.183 1.443 87.74 3.221 87.74 Z" style="stroke:none;fill:#3D5A80;stroke-miterlimit:10;"/><path d="M 47.091 87.74 L 80.909 87.74 C 82.687 87.74 84.13 89.183 84.13 90.961 L 84.13 124.779 C 84.13 126.557 82.687 128 80.909 128 L 47.091 128 C 45.313 128 43.87 126.557 43.87 124.779 L 43.87 90.961 C 43.87 89.183 45.313 87.74 47.091 87.74 Z" style="stroke:none;fill:#3D5A80;stroke-miterlimit:10;"/><path d="M 90.961 87.74 L 124.779 87.74 C 126.557 87.74 128 89.183 128 90.961 L 128 124.779 C 128 126.557 126.557 128 124.779 128 L 90.961 128 C 89.183 128 87.74 126.557 87.74 124.779 L 87.74 90.961 C 87.74 89.183 89.183 87.74 90.961 87.74 Z" style="stroke:none;fill:#3D5A80;stroke-miterlimit:10;"/><path d="M 90.961 43.87 L 124.779 43.87 C 126.557 43.87 128 45.313 128 47.091 L 128 80.909 C 128 82.687 126.557 84.13 124.779 84.13 L 90.961 84.13 C 89.183 84.13 87.74 82.687 87.74 80.909 L 87.74 47.091 C 87.74 45.313 89.183 43.87 90.961 43.87 Z" style="stroke:none;fill:#4A86E8;stroke-miterlimit:10;"/></g></g></svg>