<?xml version="1.0" encoding="UTF-8" standalone="no"?><!-- Generator: Gravit.io --><svg xmlns="http://www.w3.org/2000/svg" xmlns:xlink="http://www.w3.org/1999/xlink" style="isolation:isolate" viewBox="0 0 64 64" width="64pt" height="64pt"><defs><clipPath id="_clipPath_HIBdjXDlJXf69O5U6syE0sP0RYvKsNfy"><rect width="64" height="64"/></clipPath></defs><g clip-path="url(#_clipPath_HIBdjXDlJXf69O5U6syE0sP0RYvKsNfy)"><g><path d="M 1.61 0 L 18.52 0 C 19.408 0 20.13 0.722 20.13 1.61 L 20.13 18.52 C 20.13 19.408 19.408 20.13 18.52 20.13 L 1.61 20.13 C 0.722 20.13 0 19.408 0 18.52 L 0 1.61 C 0 0.722 0.722 0 1.61 0 Z" style="stroke:none;fill:#FFFFFF;stroke-miterlimit:10;"/><path d="M 23.541 0 L 40.459 0 C 41.348 0 42.07 0.722 42.07 1.61 L 42.07 18.52 C 42.07 19.408 41.348 20.13 40.459 20.13 L 23.541 20.13 C 22.652 20.13 21.93 19.408 21.93 18.52 L 21.93 1.61 C 21.93 0.722 22.652 0 23.541 0 Z" style="stroke:none;fill:#FFFFFF;stroke-miterlimit:10;"/><path d="M 1.61 21.93 L 18.52 21.93 C 19.408 21.93 20.13 22.652 20.13 23.541 L 20.13 40.459 C 20.13 41.348 19.408 42.07 18.52 42.07 L 1.61 42.07 C 0.722 42.07 0 41.348 0 40.459 L 0 23.541 C 0 22.652 0.722 21.93 1.61 21.93 Z" style="stroke:none;fill:#FFFFFF;stroke-miterlimit:10;"/><path d="M 23.541 21.93 L 40.459 21.93 C 41.348 21.93 42.07 22.652 42.07 23.541 L 42.07 40.459 C 42.07 41.348 41.348 42.07 40.459 42.07 L 23.541 42.07 C 22.652 42.07 21.93 41.348 21.93 40.459 L 21.93 23.541 C 21.93 22.652 22.652 21.93 23.541 21.93 Z" style="stroke:none;fill:#FFFFFF;stroke-miterlimit:10;"/><path d="M 1.61 43.87 L 18.52 43.87 C 19.408 43.87 20.13 44.592 20.13 45.48 L 20.13 62.39 C 20.13 63.278 19.408 64 18.52 64 L 1.61 64 C 0.722 64 0 63.278 0 62.39 L 0 45.48 C 0 44.592 0.722 43.87 1.61 43.87 Z" style="stroke:none;fill:#FFFFFF;stroke-miterlimit:10;"/><path d="M 23.541 43.87 L 40.459 43.87 C 41.348 43.87 42.07 44.592 42.07 45.48 L 42.07 62.39 C 42.07 63.278 41.348 64 40.459 64 L 23.541 64 C 22.652 64 21.93 63.278 21.93 62.39 L 21.93 45.48 C 21.93 44.592 22.652 43.87 23.541 43.87 Z" style="stroke:none;fill:#FFFFFF;stroke-miterlimit:10;"/><path d="M 45.48 43.87 L 62.39 43.87 C 63.278 43.87 64 44.592 64 45.48 L 64 62.39 C 64 63.278 63.278 64 62.39 64 L 45.48 64 C 44.592 64 43.87 63.278 43.87 62.39 L 43.87 45.48 C 43.87 44.592 44.592 43.87 45.48 43.87 Z" style="stroke:none;fill:#FFFFFF;stroke-miterlimit:10;"/><path d="M 45.48 21.93 L 62.39 21.93 C 63.278 21.93 64 22.652 64 23.541 L 64 40.459 C 64 41.348 63.278 42.07 62.39 42.07 L 45.48 42.07 C 44.592 42.07 43.87 41.348 43.87 40.459 L 43.87 23.541 C 43.87 22.652 44.592 21.93 45.48 21.93 Z" style="stroke:none;fill:#4A86E8;stroke-miterlimit:10;"/></g></g></svg>