<?xml version="1.0" encoding="UTF-8" standalone="no"?><!-- Generator: Gravit.io --><svg xmlns="http://www.w3.org/2000/svg" xmlns:xlink="http://www.w3.org/1999/xlink" style="isolation:isolate" viewBox="0 0 820 360" width="820pt" height="360pt"><defs><clipPath id="_clipPath_XO6TYzrK3uDzBXKayDcgT1QzXBa7Yzwz"><rect width="820" height="360"/></clipPath></defs><g clip-path="url(#_clipPath_XO6TYzrK3uDzBXKayDcgT1QzXBa7Yzwz)"><rect width="820" height="360" style="fill:rgb(46,46,46)"/><g><g><g><path d="M 187.2 156.08 L 199.59 156.08 C 200.241 156.08 200.77 156.608 200.77 157.259 L 200.77 169.641 C 200.77 170.292 200.241 170.82 199.59 170.82 L 187.2 170.82 C 186.549 170.82 186.02 170.292 186.02 169.641 L 186.02 157.259 C 186.02 156.608 186.549 156.08 187.2 156.08 Z" style="stroke:none;fill:#FFFFFF;stroke-miterlimit:10;"/><path d="M 203.27 156.08 L 215.66 156.08 C 216.311 156.08 216.84 156.608 216.84 157.259 L 216.84 169.641 C 216.84 170.292 216.311 170.82 215.66 170.82 L 203.27 170.82 C 202.619 170.82 202.09 170.292 202.09 169.641 L 202.09 157.259 C 202.09 156.608 202.619 156.08 203.27 156.08 Z" style="stroke:none;fill:#FFFFFF;stroke-miterlimit:10;"/><path d="M 187.2 172.14 L 199.59 172.14 C 200.241 172.14 200.77 172.669 200.77 173.32 L 200.77 185.71 C 200.77 186.361 200.241 186.89 199.59 186.89 L 187.2 186.89 C 186.549 186.89 186.02 186.361 186.02 185.71 L 186.02 173.32 C 186.02 172.669 186.549 172.14 187.2 172.14 Z" style="stroke:none;fill:#FFFFFF;stroke-miterlimit:10;"/><path d="M 203.27 172.14 L 215.66 172.14 C 216.311 172.14 216.84 172.669 216.84 173.32 L 216.84 185.71 C 216.84 186.361 216.311 186.89 215.66 186.89 L 203.27 186.89 C 202.619 186.89 202.09 186.361 202.09 185.71 L 202.09 173.32 C 202.09 172.669 202.619 172.14 203.27 172.14 Z" style="stroke:none;fill:#FFFFFF;stroke-miterlimit:10;"/><path d="M 219.34 172.14 L 231.73 172.14 C 232.381 172.14 232.91 172.669 232.91 173.32 L 232.91 185.71 C 232.91 186.361 232.381 186.89 231.73 186.89 L 219.34 186.89 C 218.689 186.89 218.16 186.361 218.16 185.71 L 218.16 173.32 C 218.16 172.669 218.689 172.14 219.34 172.14 Z" style="stroke:none;fill:#4A86E8;stroke-miterlimit:10;"/><path d="M 187.2 188.21 L 199.59 188.21 C 200.241 188.21 200.77 188.739 200.77 189.39 L 200.77 201.78 C 200.77 202.431 200.241 202.96 199.59 202.96 L 187.2 202.96 C 186.549 202.96 186.02 202.431 186.02 201.78 L 186.02 189.39 C 186.02 188.739 186.549 188.21 187.2 188.21 Z" style="stroke:none;fill:#FFFFFF;stroke-miterlimit:10;"/><path d="M 203.27 188.21 L 215.66 188.21 C 216.311 188.21 216.84 188.739 216.84 189.39 L 216.84 201.78 C 216.84 202.431 216.311 202.96 215.66 202.96 L 203.27 202.96 C 202.619 202.96 202.09 202.431 202.09 201.78 L 202.09 189.39 C 202.09 188.739 202.619 188.21 203.27 188.21 Z" style="stroke:none;fill:#FFFFFF;stroke-miterlimit:10;"/><path d="M 219.34 188.21 L 231.73 188.21 C 232.381 188.21 232.91 188.739 232.91 189.39 L 232.91 201.78 C 232.91 202.431 232.381 202.96 231.73 202.96 L 219.34 202.96 C 218.689 202.96 218.16 202.431 218.16 201.78 L 218.16 189.39 C 218.16 188.739 218.689 188.21 219.34 188.21 Z" style="stroke:none;fill:#FFFFFF;stroke-miterlimit:10;"/><g><path d=" M 266.048 184.163 L 266.048 191.695 Q 266.048 193.755 268.623 195.235 Q 271.198 196.716 276.862 196.716 L 307.631 196.716 Q 309.176 196.716 309.627 197.617 Q 310.142 198.454 310.142 200.192 Q 310.142 201.865 309.627 202.766 Q 309.176 203.668 307.631 203.668 L 276.605 203.668 Q 257.551 203.668 257.551 191.695 L 257.551 168.972 Q 257.551 156.999 276.605 156.999 L 286.196 156.999 Q 287.676 156.999 288.127 157.9 Q 288.642 158.737 288.642 160.475 Q 288.642 162.213 288.127 163.114 Q 287.676 163.951 286.196 163.951 L 276.862 163.951 Q 271.198 163.951 268.623 165.431 Q 266.048 166.848 266.048 168.972 L 266.048 177.211 L 307.824 177.211 Q 309.369 177.211 309.82 178.112 Q 310.335 178.949 310.335 180.687 Q 310.335 182.425 309.82 183.326 Q 309.369 184.163 307.824 184.163 L 266.048 184.163 Z " fill="rgb(255,255,255)"/><path d=" M 323.761 200.9 Q 323.761 202.766 322.731 203.346 Q 321.701 203.925 319.642 203.925 Q 317.582 203.925 316.552 203.346 Q 315.586 202.767 315.586 200.9 L 315.586 184.482 L 315.586 159.767 Q 315.586 157.9 316.552 157.321 Q 317.582 156.742 319.642 156.742 Q 321.701 156.742 322.731 157.321 Q 323.761 157.9 323.761 159.767 L 323.761 200.9 Z " fill="rgb(255,255,255)"/><path d=" M 347.044 203.668 Q 328.827 203.668 328.827 192.467 L 328.827 189.055 Q 328.827 177.855 347.044 177.855 L 374.595 177.855 L 374.595 177.79 Q 374.595 175.924 372.149 174.894 Q 369.767 173.799 364.296 173.799 L 358.245 173.799 Q 356.764 173.799 356.314 173.027 Q 355.863 172.19 355.863 170.581 Q 355.863 168.907 356.314 168.135 Q 356.764 167.298 358.245 167.298 L 364.553 167.298 Q 382.77 167.298 382.77 178.499 L 382.77 192.467 Q 382.77 203.667 364.553 203.667 L 347.044 203.668 Z  M 364.296 197.166 Q 369.703 197.166 372.149 195.814 Q 374.595 194.398 374.595 192.467 L 374.595 184.099 L 347.302 184.099 Q 341.895 184.099 339.449 185.451 Q 337.002 186.802 337.002 188.798 L 337.002 192.467 Q 337.002 194.398 339.449 195.814 Q 341.895 197.166 347.302 197.166 L 364.296 197.166 Z " fill="rgb(255,255,255)"/><path d=" M 387.418 176.954 Q 387.418 172.448 391.28 169.873 Q 395.142 167.298 402.738 167.298 L 411.557 167.298 Q 413.037 167.298 413.488 168.135 Q 413.938 168.907 413.938 170.581 Q 413.938 172.19 413.488 173.027 Q 413.037 173.8 411.557 173.8 L 402.674 173.8 Q 399.005 173.8 397.266 174.701 Q 395.529 175.538 395.529 177.018 L 395.529 178.692 Q 395.529 180.172 397.331 181.073 Q 399.133 181.975 402.996 181.975 L 417.221 181.975 Q 426.233 181.975 430.224 184.549 Q 434.215 187.124 434.215 191.759 L 434.215 193.819 Q 434.215 196.136 433.185 198.003 Q 432.155 199.805 429.967 201.093 Q 427.778 202.316 424.302 203.024 Q 420.826 203.668 415.998 203.668 L 389.928 203.668 Q 388.448 203.668 387.997 202.895 Q 387.547 202.058 387.547 200.385 Q 387.547 198.775 387.997 198.003 Q 388.448 197.166 389.928 197.166 L 417.221 197.166 Q 419.796 197.166 421.47 196.973 Q 423.208 196.715 424.173 196.329 Q 425.203 195.878 425.59 195.299 Q 425.976 194.72 425.976 193.947 L 425.976 191.63 Q 425.976 190.858 425.59 190.278 Q 425.203 189.699 424.238 189.248 Q 423.272 188.798 421.599 188.604 Q 419.989 188.347 417.479 188.347 L 403.06 188.347 Q 395.271 188.347 391.344 185.837 Q 387.418 183.262 387.418 178.82 L 387.418 176.954 Z " fill="rgb(255,255,255)"/><path d=" M 439.512 167.298 L 439.512 159.767 Q 439.512 157.9 440.477 157.321 Q 441.507 156.742 443.567 156.742 Q 445.627 156.742 446.657 157.321 Q 447.687 157.9 447.687 159.767 L 447.687 167.298 L 461.269 167.298 Q 462.75 167.298 463.136 168.135 Q 463.586 168.972 463.586 170.581 Q 463.586 172.19 463.136 173.027 Q 462.75 173.8 461.269 173.8 L 447.687 173.8 L 447.687 200.9 Q 447.687 202.766 446.657 203.346 Q 445.627 203.925 443.567 203.925 Q 441.507 203.925 440.477 203.346 Q 439.512 202.767 439.512 200.9 L 439.512 173.8 L 435.843 173.8 Q 434.362 173.8 433.911 173.027 Q 433.525 172.19 433.525 170.581 Q 433.525 168.972 433.911 168.135 Q 434.362 167.298 435.843 167.298 L 439.512 167.298 Z " fill="rgb(255,255,255)"/><path d=" M 475.51 200.9 Q 475.51 202.766 474.48 203.346 Q 473.45 203.925 471.39 203.925 Q 469.331 203.925 468.301 203.346 Q 467.335 202.767 467.335 200.9 L 467.335 170.517 Q 467.335 168.65 468.301 168.071 Q 469.331 167.491 471.39 167.491 Q 473.45 167.491 474.48 168.071 Q 475.51 168.65 475.51 170.517 L 475.51 200.9 Z " fill="rgb(255,255,255)"/><path d=" M 466.305 160.732 Q 466.305 158.673 467.464 157.707 Q 468.687 156.741 471.39 156.741 Q 474.094 156.741 475.253 157.707 Q 476.476 158.673 476.476 160.732 Q 476.476 162.792 475.253 163.758 Q 474.094 164.723 471.39 164.723 Q 468.687 164.723 467.464 163.758 Q 466.305 162.792 466.305 160.732 Z " fill="rgb(74,134,232)"/><path d=" M 499.759 183.455 Q 480.705 183.455 480.705 171.482 L 480.705 168.972 Q 480.705 156.999 499.759 156.999 L 506.196 156.999 Q 507.741 156.999 508.191 157.9 Q 508.706 158.737 508.706 160.475 Q 508.706 162.213 508.191 163.114 Q 507.741 163.951 506.196 163.951 L 499.566 163.951 Q 493.901 163.951 491.519 165.431 Q 489.202 166.848 489.202 168.972 L 489.202 171.482 Q 489.202 173.542 491.519 175.023 Q 493.901 176.503 499.566 176.503 L 514.757 176.503 Q 533.811 176.503 533.811 188.476 L 533.811 191.695 Q 533.811 203.668 514.757 203.668 L 483.215 203.668 Q 481.671 203.668 481.156 202.831 Q 480.705 201.93 480.705 200.192 Q 480.705 198.454 481.156 197.617 Q 481.671 196.716 483.215 196.716 L 514.95 196.716 Q 520.615 196.716 522.932 195.299 Q 525.314 193.819 525.314 191.695 L 525.314 188.476 Q 525.314 186.416 522.932 184.936 Q 520.615 183.455 514.95 183.455 L 499.759 183.455 Z " fill="rgb(255,255,255)"/><path d=" M 546.796 200.9 Q 546.796 202.766 545.766 203.346 Q 544.736 203.925 542.676 203.925 Q 540.616 203.925 539.586 203.346 Q 538.62 202.767 538.62 200.9 L 538.62 170.517 Q 538.62 168.65 539.586 168.071 Q 540.616 167.491 542.676 167.491 Q 544.736 167.491 545.766 168.071 Q 546.796 168.65 546.796 170.517 L 546.796 200.9 Z " fill="rgb(255,255,255)" vector-effect="non-scaling-stroke" stroke-width="0.75" stroke="rgb(255,255,255)" stroke-linejoin="miter" stroke-linecap="butt" stroke-miterlimit="4"/><path d=" M 537.591 160.732 Q 537.591 158.673 538.749 157.707 Q 539.972 156.741 542.676 156.741 Q 545.379 156.741 546.538 157.707 Q 547.761 158.673 547.761 160.732 Q 547.761 162.792 546.538 163.758 Q 545.379 164.723 542.676 164.723 Q 539.972 164.723 538.749 163.758 Q 537.591 162.792 537.591 160.732 Z " fill="rgb(74,134,232)"/><path d=" M 556.561 167.298 L 556.561 159.767 Q 556.561 157.9 557.526 157.321 Q 558.556 156.742 560.616 156.742 Q 562.676 156.742 563.706 157.321 Q 564.736 157.9 564.736 159.767 L 564.736 167.298 L 578.318 167.298 Q 579.799 167.298 580.185 168.135 Q 580.635 168.972 580.635 170.581 Q 580.635 172.19 580.185 173.027 Q 579.799 173.8 578.318 173.8 L 564.736 173.8 L 564.736 200.9 Q 564.736 202.766 563.706 203.346 Q 562.676 203.925 560.616 203.925 Q 558.556 203.925 557.526 203.346 Q 556.561 202.767 556.561 200.9 L 556.561 173.8 L 552.892 173.8 Q 551.411 173.8 550.961 173.027 Q 550.574 172.19 550.574 170.581 Q 550.574 168.972 550.961 168.135 Q 551.411 167.298 552.892 167.298 L 556.561 167.298 Z " fill="rgb(255,255,255)"/><path d=" M 590.848 189.184 L 590.848 192.467 Q 590.848 194.398 593.294 195.814 Q 595.74 197.166 601.148 197.166 L 608.55 197.166 Q 610.031 197.166 610.417 198.003 Q 610.867 198.775 610.867 200.385 Q 610.867 201.994 610.417 202.831 Q 610.031 203.668 608.55 203.668 L 600.89 203.668 Q 582.673 203.668 582.673 192.467 L 582.673 178.499 Q 582.673 167.298 600.89 167.298 L 615.76 167.298 Q 625.415 167.298 629.664 170.066 Q 633.977 172.834 633.977 178.499 L 633.977 185.901 Q 633.977 187.768 633.268 188.476 Q 632.56 189.184 630.114 189.184 L 590.848 189.184 Z  M 590.848 182.811 L 625.802 182.811 L 625.802 178.499 Q 625.802 176.246 623.355 175.023 Q 620.974 173.8 615.502 173.8 L 601.148 173.8 Q 595.74 173.8 593.294 175.151 Q 590.848 176.503 590.848 178.499 L 590.848 182.811 Z " fill="rgb(255,255,255)"/></g></g></g></g></g></svg>